<svg width="19" height="16" viewBox="0 0 19 16" fill="none" xmlns="http://www.w3.org/2000/svg">
<g opacity="0.65">
<path fill-rule="evenodd" clip-rule="evenodd" d="M7.01543 11.4125C6.87637 11.4125 6.73731 11.3594 6.63262 11.2547L4.19824 8.81875C3.98887 8.60781 3.98887 8.26562 4.19981 8.05469C4.40918 7.84375 4.75137 7.84375 4.96231 8.05469L6.47637 9.56875V0.540625C6.47637 0.242188 6.71856 0 7.01699 0C7.31543 0 7.55762 0.242188 7.55762 0.540625V9.56875L9.07168 8.05469C9.17324 7.95312 9.30918 7.89687 9.45293 7.89687C9.59668 7.89687 9.73262 7.95312 9.83418 8.05469C10.0451 8.26562 10.0451 8.60781 9.83418 8.81875L7.39824 11.2547C7.29199 11.3594 7.15449 11.4125 7.01543 11.4125ZM12.9187 9.54688C12.9187 9.24844 13.1609 9.00625 13.4594 9.00625C13.7578 9.00625 14 9.24844 14 9.54531V13.0281C14 13.5625 13.5656 13.9984 13.0297 13.9984H0.970313C0.435938 13.9984 0 13.5641 0 13.0281V9.54531C0 9.24844 0.240625 9.00469 0.539062 9.00469C0.8375 9.00469 1.07969 9.24687 1.07969 9.54531V12.6C1.07969 12.7781 1.225 12.9219 1.40156 12.9219H12.5969C12.775 12.9219 12.9187 12.7766 12.9187 12.6V9.54688Z" fill="#136DF6"/>
</g>
</svg>
