<svg width="16" height="16" viewBox="0 0 16 16" fill="none" xmlns="http://www.w3.org/2000/svg">
<g opacity="0.65">
<path fill-rule="evenodd" clip-rule="evenodd" d="M9.34063 0.332813L13.6813 4.71563C13.8906 4.92656 14 5.21094 14 5.50781V14.875C14 15.4969 13.5125 16 12.8906 16H3.15625C2.53438 16 2.01562 15.4969 2.01562 14.875V1.125C2.01562 0.503125 2.53438 0 3.15625 0H8.54688C8.70469 0 8.85938 0.034375 9 0.096875L9.01001 0.101247C9.02123 0.106111 9.03295 0.111189 9.04375 0.117188C9.06719 0.128125 9.08906 0.140625 9.11094 0.153125C9.19375 0.203125 9.27031 0.2625 9.34063 0.332813ZM12.2625 4.875L9.125 1.725V4.875H12.2625ZM12.875 14.875H3.14062V1.125H8V4.875C8 5.49688 8.51875 6 9.14063 6H12.875V14.875ZM4.17188 9H5.21406C5.875 9 6.41563 9.23438 6.41719 9.97344C6.41719 10.6844 5.86719 11 5.23594 11H4.89062V12H4.17188V9ZM5.2 10.4375H4.89062V9.5625H5.17969C5.52656 9.5625 5.71875 9.67188 5.71875 9.975C5.71875 10.2672 5.55 10.4375 5.2 10.4375ZM6.92188 9H7.78906C8.70156 9 9.30469 9.44375 9.30469 10.4844C9.30469 11.525 8.70156 12 7.82969 12H6.92188V9ZM7.74375 11.4219H7.65625V9.57812H7.74375C8.22656 9.57812 8.56719 9.77812 8.56719 10.4891C8.56719 11.2 8.22656 11.4219 7.74375 11.4219ZM11.7656 9V9.59375H10.5781V10.2656H11.5938V10.8594H10.5781V12H9.85938V9H11.7656Z" fill="#136DF6"/>
</g>
</svg>
