<svg width="45" height="27" viewBox="0 0 45 27" fill="none" xmlns="http://www.w3.org/2000/svg">
<path d="M43.4392 15.3H43.5C44.3284 15.3 45 14.8971 45 14.4C45 13.4059 43.6569 12.6 42 12.6H33.921C35.1037 11.9864 35.8405 11.12 35.9745 10.1853L37.752 9.6498C38.5178 9.42292 39.0019 8.95445 39 8.442V6.3C39 5.55442 37.9926 4.95 36.75 4.95H33.489C33.5395 4.82033 33.6059 4.69309 33.6878 4.5693C33.8032 4.38761 33.9498 4.21358 34.125 4.05H34.5C34.9142 4.05 35.25 3.84853 35.25 3.6C35.25 3.35147 34.9142 3.15 34.5 3.15H33.75C33.7478 2.0812 32.4948 1.16029 30.75 0.945V0.45C30.75 0.201472 30.4142 0 30 0C29.5858 0 29.25 0.201472 29.25 0.45V0.945C27.5052 1.16029 26.2522 2.0812 26.25 3.15H25.5C25.0858 3.15 24.75 3.35147 24.75 3.6C24.75 3.84853 25.0858 4.05 25.5 4.05H25.875C26.0498 4.21429 26.1961 4.3889 26.3115 4.5711C26.9632 5.59047 26.6236 6.74243 25.4287 7.56585C25.2185 7.71447 25.0291 7.87326 24.8625 8.0406C23.91 7.87037 23.2552 7.34631 23.25 6.75V5.85C23.25 5.10442 22.2426 4.5 21 4.5H18.51C17.9986 4.5018 17.5384 4.68679 17.3411 4.96991C17.1439 5.25303 17.2476 5.57948 17.6047 5.79915L17.8748 5.96115C18.4338 6.29898 18.7483 6.75544 18.75 7.2315C18.7665 9.20464 21.1578 10.8815 24.4043 11.1965C24.7084 11.6736 25.1792 12.1061 25.785 12.465C25.8668 12.5132 25.9537 12.555 26.0385 12.6H12.7305C13.0714 12.3351 13.3085 12.0274 13.4242 11.7H14.25C15.4926 11.7 16.5 11.0956 16.5 10.35V9.9C16.5 9.15442 15.4926 8.55 14.25 8.55H7.5C6.67157 8.55 6 8.95294 6 9.45V11.25C6.00276 11.7385 6.27315 12.2128 6.7695 12.6H3C1.34315 12.6 0 13.4059 0 14.4C0 14.8971 0.671573 15.3 1.5 15.3H1.56075C1.8182 16.0453 2.3533 16.7461 3.126 17.3498C3.8325 17.9856 4.5 18.585 4.5 19.35C4.5 20.115 3.8325 20.7144 3.126 21.3503C2.16673 22.0627 1.59871 22.936 1.5 23.85V24.3C0.671573 24.3 0 24.7029 0 25.2V26.1C0 26.5971 0.671573 27 1.5 27H6.75C7.57843 27 8.25 26.5971 8.25 26.1V25.2C8.25 24.7029 7.57843 24.3 6.75 24.3V23.9175C6.75 23.1975 7.43625 22.4293 8.16225 21.6185C8.87723 20.9185 9.39208 20.1518 9.6855 19.35H9.75C11.82 19.3485 13.4975 18.342 13.5 17.1H15.6705H15.72C15.195 17.3951 14.7773 17.752 14.493 18.1485C14.493 18.1521 14.4855 18.1543 14.484 18.1575C14.4833 18.1614 14.4833 18.1653 14.484 18.1692C14.331 18.402 14.2517 18.6498 14.25 18.9V19.8C14.25 20.0485 14.5858 20.25 15 20.25C15.4142 20.25 15.75 20.0485 15.75 19.8V18.8941C17.9547 19.2304 20.2259 19.3838 22.5 19.35C24.7741 19.3838 27.0453 19.2304 29.25 18.8941V19.8C29.25 20.0485 29.5858 20.25 30 20.25C30.4142 20.25 30.75 20.0485 30.75 19.8V18.9C30.7488 18.6519 30.671 18.4061 30.5205 18.175C30.5205 18.1701 30.5205 18.1647 30.516 18.1593C30.5115 18.1539 30.5063 18.1512 30.5033 18.1462C30.2195 17.7498 29.7894 17.3971 29.2455 17.1148C29.25 17.1108 29.2732 17.1 29.3295 17.1H31.5C31.5025 18.342 33.18 19.3485 35.25 19.35H35.3145C35.6079 20.1518 36.1228 20.9185 36.8377 21.6185C37.5638 22.4284 38.25 23.1935 38.25 23.9175V24.3C37.4216 24.3 36.75 24.7029 36.75 25.2V26.1C36.75 26.5971 37.4216 27 38.25 27H43.5C44.3284 27 45 26.5971 45 26.1V25.2C45 24.7029 44.3284 24.3 43.5 24.3V23.85C43.4016 22.9359 42.8336 22.0626 41.874 21.3503C41.1675 20.7144 40.5 20.115 40.5 19.35C40.5 18.585 41.1675 17.9856 41.874 17.3498C42.647 16.7462 43.1822 16.0454 43.4392 15.3ZM20.25 7.2315C20.2469 6.55299 19.821 5.8997 19.056 5.4H21C21.4142 5.4 21.75 5.60147 21.75 5.85V6.75C21.7605 7.70087 22.765 8.54539 24.2603 8.8605C24.0893 9.19751 24.0017 9.54773 24 9.9C24 10.0107 24.0105 10.1205 24.027 10.2294C21.7993 9.84322 20.2617 8.62278 20.25 7.2315ZM37.5 6.3V8.442C37.5007 8.61398 37.338 8.77116 37.0807 8.847L35.8807 9.207C35.6948 8.62584 35.272 8.08134 34.65 7.6221C33.9475 7.11952 33.5116 6.50238 33.3982 5.85H36.75C37.1642 5.85 37.5 6.05147 37.5 6.3ZM30 1.8C31.2426 1.8 32.25 2.40442 32.25 3.15H27.75C27.75 2.40442 28.7574 1.8 30 1.8ZM25.5 9.9C25.4996 9.25859 25.8798 8.63804 26.5725 8.1495C28.128 7.07328 28.5654 5.56954 27.7095 4.2408C27.6645 4.1724 27.6195 4.1103 27.5745 4.05H32.4255C32.3813 4.10985 32.3363 4.1715 32.292 4.239C31.4717 5.58874 31.9281 7.09899 33.486 8.19C34.1841 8.70176 34.5449 9.34947 34.5 10.0103C34.3771 11.4368 32.4431 12.5657 30.063 12.6C28.8586 12.6101 27.6978 12.3301 26.8402 11.8227C25.9826 11.3152 25.4999 10.6227 25.5 9.9ZM15 9.9V10.35C15 10.5985 14.6642 10.8 14.25 10.8H13.5V9.45H14.25C14.6642 9.45 15 9.65147 15 9.9ZM7.5 11.25V9.45H12V11.25C12 11.9956 10.9926 12.6 9.75 12.6C8.50736 12.6 7.5 11.9956 7.5 11.25ZM3 13.5H42C42.8284 13.5 43.5 13.9029 43.5 14.4H1.5C1.5 13.9029 2.17157 13.5 3 13.5ZM6.75 26.1H1.5V25.2H6.75V26.1ZM6.84 21.1923C6.0585 22.0658 5.25 22.9689 5.25 23.9175V24.3H3V23.85C3 23.085 3.6675 22.4856 4.374 21.8497C5.33327 21.1373 5.90129 20.264 6 19.35C5.90129 18.436 5.33327 17.5627 4.374 16.8503C3.7836 16.3875 3.346 15.8613 3.08475 15.3H6.057C6.21386 15.8454 6.57944 16.3616 7.125 16.808C7.88033 17.4099 8.27654 18.1467 8.25 18.9C8.25 19.62 7.56525 20.385 6.84075 21.1923H6.84ZM12 17.1C12 17.8456 10.9926 18.45 9.75 18.45H9.717C9.60131 17.6816 9.14246 16.9461 8.38875 16.3211C8.01138 16.015 7.73515 15.6684 7.575 15.3H12V17.1ZM29.3295 16.2C28.6908 16.193 28.109 16.4193 27.8587 16.7719C27.6317 17.1003 27.765 17.4786 28.194 17.7237C28.3716 17.8274 28.5384 17.9376 28.6935 18.0535C26.6667 18.3473 24.5845 18.4806 22.5 18.45C20.4155 18.4806 18.3333 18.3473 16.3065 18.0535C16.4616 17.9376 16.6284 17.8274 16.806 17.7237C17.235 17.4786 17.3683 17.1003 17.1413 16.7719C16.891 16.4193 16.3092 16.193 15.6705 16.2H13.5V15.3H31.5V16.2H29.3295ZM33 17.1V15.3H37.425C37.2652 15.6685 36.9889 16.0151 36.6112 16.3211C35.8575 16.9461 35.3987 17.6816 35.283 18.45H35.25C34.0074 18.45 33 17.8456 33 17.1ZM43.5 26.1H38.25V25.2H43.5V26.1ZM39 19.35C39.0984 20.2641 39.6664 21.1374 40.626 21.8497C41.3325 22.4856 42 23.085 42 23.85V24.3H39.75V23.9175C39.75 22.9689 38.9415 22.0658 38.1593 21.1923C37.4347 20.385 36.75 19.62 36.75 18.9C36.7239 18.1467 37.12 17.41 37.875 16.808C38.4208 16.3617 38.7865 15.8455 38.943 15.3H41.9153C41.654 15.8613 41.2164 16.3875 40.626 16.8503C39.6664 17.5626 39.0984 18.4359 39 19.35Z" fill="black"/>
<path d="M28.4999 11.3566C28.8108 11.3566 29.0894 11.2415 29.2004 11.0673C29.3114 10.893 29.2317 10.6958 29.0001 10.5713C28.6818 10.4006 28.4999 10.1566 28.4999 9.9004C28.4999 9.64423 28.6818 9.40019 29.0001 9.22945C29.2027 9.12267 29.2941 8.95889 29.2396 8.80046C29.1851 8.64204 28.9931 8.51335 28.7366 8.4634C28.4802 8.41346 28.1988 8.44993 27.9996 8.55895C27.3636 8.90042 27 9.38829 27 9.9004C27 10.4125 27.3636 10.9004 27.9996 11.2418C28.1372 11.3157 28.3153 11.3566 28.4999 11.3566Z" fill="black"/>
</svg>
