<svg width="45" height="27" viewBox="0 0 45 27" fill="none" xmlns="http://www.w3.org/2000/svg">
<path d="M42 12H40.5V11.25C40.5 11.0511 40.421 10.8603 40.2803 10.7197C40.1397 10.579 39.9489 10.5 39.75 10.5H27.75V8.90962C29.4595 8.49141 30.75 6.67313 30.75 4.5C30.75 2.01872 29.0677 0 27 0H3.75C1.68225 0 0 2.01872 0 4.5C0 6.67313 1.29047 8.49141 3 8.90962V22.5H0.75C0.551088 22.5 0.360322 22.579 0.21967 22.7197C0.0790176 22.8603 0 23.0511 0 23.25C0.00111661 24.2442 0.396563 25.1974 1.09958 25.9004C1.8026 26.6034 2.75578 26.9989 3.75 27H41.25C42.2442 26.9989 43.1974 26.6034 43.9004 25.9004C44.6034 25.1974 44.9989 24.2442 45 23.25C45 23.0511 44.921 22.8603 44.7803 22.7197C44.6397 22.579 44.4489 22.5 44.25 22.5H37.9861C38.9581 21.7152 39.6941 20.6769 40.113 19.5H42C42.7954 19.4991 43.5579 19.1827 44.1203 18.6203C44.6827 18.0579 44.9991 17.2954 45 16.5V15C44.9991 14.2046 44.6827 13.4421 44.1203 12.8797C43.5579 12.3173 42.7954 12.0009 42 12ZM9 1.5H27C28.2406 1.5 29.25 2.84578 29.25 4.5C29.25 6.15422 28.2406 7.5 27 7.5C26.8011 7.5 26.6103 7.57902 26.4697 7.71967C26.329 7.86032 26.25 8.05109 26.25 8.25V10.5H24.75C24.5511 10.5 24.3603 10.579 24.2197 10.7197C24.079 10.8603 24 11.0511 24 11.25V17.25C23.9979 18.2001 24.1974 19.1399 24.5853 20.0072C24.9731 20.8746 25.5405 21.6498 26.25 22.2817V22.5H9.75V8.25C9.75 8.05109 9.67098 7.86032 9.53033 7.71967C9.38968 7.57902 9.19891 7.5 9 7.5C7.75941 7.5 6.75 6.15422 6.75 4.5C6.75 2.84578 7.75941 1.5 9 1.5ZM1.5 4.5C1.5 2.84578 2.50941 1.5 3.75 1.5H6.20794C5.57502 2.37132 5.23916 3.42312 5.25 4.5C5.25 6.67313 6.54047 8.49141 8.25 8.90962V22.5H4.5V8.25C4.5 8.05109 4.42098 7.86032 4.28033 7.71967C4.13968 7.57902 3.94891 7.5 3.75 7.5C2.50941 7.5 1.5 6.15422 1.5 4.5ZM43.3715 24C43.2159 24.4384 42.9284 24.8179 42.5486 25.0864C42.1688 25.355 41.7152 25.4995 41.25 25.5H3.75C3.28482 25.4995 2.83121 25.355 2.45138 25.0864C2.07156 24.8179 1.78413 24.4384 1.62853 24H43.3715ZM39 17.25C38.9984 18.6419 38.4448 19.9764 37.4606 20.9606C36.4764 21.9448 35.1419 22.4984 33.75 22.5H30.75C30.0605 22.5002 29.3777 22.3646 28.7406 22.1008C28.1036 21.8371 27.5247 21.4504 27.0372 20.9628C26.5496 20.4753 26.1629 19.8964 25.8992 19.2594C25.6354 18.6223 25.4998 17.9395 25.5 17.25V12H39V17.25ZM43.5 16.5C43.4995 16.8977 43.3413 17.2789 43.0601 17.5601C42.7789 17.8413 42.3977 17.9995 42 18H40.4573C40.4854 17.751 40.4996 17.5006 40.5 17.25V13.5H42C42.3977 13.5005 42.7789 13.6587 43.0601 13.9399C43.3413 14.2211 43.4995 14.6023 43.5 15V16.5Z" fill="black"/>
</svg>
