<svg width="16" height="16" viewBox="0 0 16 16" fill="none" xmlns="http://www.w3.org/2000/svg">
<path d="M8.625 7.1875H7.375V8.4375H8.625V7.1875Z" fill="#BBBBBB"/>
<path d="M14.125 1.25H13.375V0H12.125V1.25H3.875V0H2.625V1.25H1.875C0.841125 1.25 0 2.09113 0 3.125V14.125C0 15.1589 0.841125 16 1.875 16H6.03125H6.125H8.30506C7.87294 15.6433 7.49656 15.2215 7.19059 14.75H6.125H6.03125H1.875C1.53038 14.75 1.25 14.4696 1.25 14.125V5.875H14.75V7.125V7.1875V7.19059C15.2215 7.49656 15.6433 7.87297 16 8.30506V7.1875V7.125V3.125C16 2.09113 15.1589 1.25 14.125 1.25ZM14.75 4.625H1.25V3.125C1.25 2.78038 1.53038 2.5 1.875 2.5H2.625V3.75H3.875V2.5H12.125V3.75H13.375V2.5H14.125C14.4696 2.5 14.75 2.78038 14.75 3.125V4.625Z" fill="#BBBBBB"/>
<path d="M11.7812 7.5625C9.45503 7.5625 7.5625 9.45503 7.5625 11.7812C7.5625 14.1075 9.45503 16 11.7812 16C14.1075 16 16 14.1075 16 11.7812C16 9.45503 14.1075 7.5625 11.7812 7.5625ZM11.7812 14.75C10.1443 14.75 8.8125 13.4182 8.8125 11.7812C8.8125 10.1443 10.1443 8.8125 11.7812 8.8125C13.4182 8.8125 14.75 10.1443 14.75 11.7812C14.75 13.4182 13.4182 14.75 11.7812 14.75Z" fill="#BBBBBB"/>
<path d="M12.375 9.6875H11.125V12.4062H13.4375V11.1562H12.375V9.6875Z" fill="#BBBBBB"/>
<path d="M6.125 9.6875H4.875V10.9375H6.125V9.6875Z" fill="#BBBBBB"/>
<path d="M3.625 9.6875H2.375V10.9375H3.625V9.6875Z" fill="#BBBBBB"/>
<path d="M3.625 7.1875H2.375V8.4375H3.625V7.1875Z" fill="#BBBBBB"/>
<path d="M3.625 12.1875H2.375V13.4375H3.625V12.1875Z" fill="#BBBBBB"/>
<path d="M6.125 7.1875H4.875V8.4375H6.125V7.1875Z" fill="#BBBBBB"/>
<path d="M6.125 12.1875H4.875V13.4375H6.125V12.1875Z" fill="#BBBBBB"/>
</svg>
