<svg width="24" height="22" viewBox="0 0 24 22" fill="none" xmlns="http://www.w3.org/2000/svg">
<path d="M3.49337 21.5656H1.79281L2.99532 20.3631C3.64369 19.7148 4.04858 18.8715 4.15744 17.9566C2.46551 16.8463 1.2283 15.3855 0.566021 13.7103C-0.0957876 12.0363 -0.178954 10.1935 0.325539 8.38112C0.930854 6.20645 2.3506 4.22431 4.32316 2.79977C6.4667 1.25183 9.13516 0.433594 12.0401 0.433594C15.6996 0.433594 18.7841 1.48498 20.9601 3.47403C22.9204 5.26598 24 7.68306 24 10.2801C24 11.5418 23.7431 12.7695 23.2364 13.929C22.7121 15.1289 21.9444 16.1973 20.9545 17.1044C18.7756 19.1013 15.693 20.1568 12.0401 20.1568C10.684 20.1568 9.26895 19.9758 8.00558 19.6436C6.80974 20.8704 5.18929 21.5656 3.49337 21.5656ZM12.0401 1.8424C6.21523 1.8424 2.64105 5.31618 1.68273 8.75892C0.777154 12.0123 2.11209 15.0865 5.25372 16.9823L5.60475 17.1942L5.59395 17.604C5.57253 18.4152 5.37915 19.1965 5.03301 19.9028C5.8759 19.6176 6.64073 19.1006 7.23966 18.393L7.53748 18.0411L7.97914 18.1732C9.21856 18.5439 10.6608 18.748 12.0401 18.748C19.2894 18.748 22.5912 14.3585 22.5912 10.2801C22.5912 8.08349 21.6744 6.03565 20.0095 4.51386C18.0976 2.7662 15.3418 1.8424 12.0401 1.8424Z" fill="black"/>
</svg>
