<svg width="24" height="24" viewBox="0 0 24 24" fill="none" xmlns="http://www.w3.org/2000/svg">
<g opacity="0.65">
<path fill-rule="evenodd" clip-rule="evenodd" d="M22.3125 0H8.43046C7.96405 0 7.58671 0.377344 7.58671 0.84375C7.58671 1.31016 7.96405 1.6875 8.43046 1.6875H22.3125V15.6562C22.3125 16.1227 22.6898 16.5 23.1562 16.5C23.6226 16.5 24 16.1227 24 15.6562V1.6875C24 0.754687 23.2453 0 22.3125 0ZM1.6875 6.00001H16.3125C17.2453 6.00001 18 6.7547 18 7.68751V22.3125C18 23.2453 17.2453 24 16.3125 24H1.6875C0.754688 24 0 23.2453 0 22.3125V7.68751C0 6.7547 0.754688 6.00001 1.6875 6.00001ZM16.3125 22.3125V7.68752H1.6875V22.3125H16.3125ZM3.84375 3.00003H19.3125C20.2453 3.00003 21 3.75472 21 4.68753V20.1563C21 20.6227 20.6227 21 20.1563 21C19.6898 21 19.3125 20.6227 19.3125 20.1563V4.68753H3.84375C3.37734 4.68753 3 4.31018 3 3.84378C3 3.37737 3.37734 3.00003 3.84375 3.00003Z" fill="#979797"/>
</g>
</svg>
