<svg width="24" height="24" viewBox="0 0 24 24" fill="none" xmlns="http://www.w3.org/2000/svg">
<path d="M23.1753 6.31261C22.0775 5.2148 20.2526 5.21109 19.1511 6.31261C18.8903 6.57342 18.6318 6.83184 18.3743 7.08923V3.52547C18.3743 2.36241 17.4341 1.41619 16.2785 1.41619H15.515V0.703078C15.515 0.314812 15.2003 0 14.8119 0C14.4236 0 14.1089 0.314812 14.1089 0.703078V1.41614H12.7027V0.703078C12.7027 0.314812 12.3878 0 11.9995 0C11.6112 0 11.2965 0.314812 11.2965 0.703078V1.41614H9.89025V0.703078C9.89025 0.314812 9.57544 0 9.18717 0C8.79886 0 8.48409 0.314812 8.48409 0.703078V1.41614H7.07789V0.703078C7.07784 0.314812 6.76308 0 6.37477 0C5.98645 0 5.67169 0.314812 5.67169 0.703078V1.41614H4.26548V0.703078C4.26548 0.314812 3.95067 0 3.56236 0C3.17405 0 2.85928 0.314812 2.85928 0.703078V1.41614H2.15611C0.967172 1.41614 0 2.35936 0 3.51872V21.8954C0 23.0611 0.9885 23.9992 2.15527 24L16.278 23.999C16.2785 23.999 16.2789 23.999 16.2794 23.999C17.4443 23.999 18.3743 23.0707 18.3743 21.9053V15.0624C20.0002 13.4511 21.5786 11.8867 23.1753 10.2899C24.2745 9.19078 24.2746 7.41188 23.1753 6.31261ZM16.9681 21.9054C16.9681 22.2923 16.6684 22.5976 16.2789 22.5976C16.2788 22.5976 16.2786 22.5976 16.2784 22.5976L2.15578 22.5985C1.7565 22.5983 1.4063 22.2697 1.4063 21.8955L1.40611 3.51877C1.40611 3.14775 1.75659 2.81302 2.15611 2.81302H2.85923V3.51548C2.85923 3.9038 3.17405 4.21856 3.56231 4.21856C3.95058 4.21856 4.26539 3.90375 4.26539 3.51548V2.81302H5.67159V3.51548C5.67159 3.9038 5.98641 4.21856 6.37467 4.21856C6.76298 4.21856 7.07775 3.90375 7.07775 3.51548V2.81302H8.48395V3.51548C8.48395 3.9038 8.79877 4.21856 9.18703 4.21856C9.5753 4.21856 9.89011 3.90375 9.89011 3.51548V2.81302H11.2963V3.51548C11.2963 3.9038 11.6111 4.21856 11.9994 4.21856C12.3877 4.21856 12.7025 3.90375 12.7025 3.51548V2.81302H14.1087V3.51548C14.1087 3.9038 14.4235 4.21856 14.8118 4.21856C15.2001 4.21856 15.5148 3.90375 15.5148 3.51548V2.81302H16.2782C16.665 2.81302 16.9679 3.13125 16.9679 3.52547V8.49445C15.536 9.92494 14.1413 11.3174 12.7497 12.7073H3.56236C3.17405 12.7073 2.85928 13.0221 2.85928 13.4103C2.85928 13.7986 3.17409 14.1087 3.56236 14.1087H11.3424C10.5054 14.9451 9.99961 15.4556 9.93563 15.5196H3.56236C3.17405 15.5196 2.85928 15.8344 2.85928 16.2227C2.85928 16.611 3.17409 16.9258 3.56236 16.9258H9.30328L8.83453 18.332H3.56236C3.17405 18.332 2.85928 18.6468 2.85928 19.035C2.85928 19.4233 3.17409 19.7383 3.56236 19.7383H8.36583L8.14627 20.3969C7.96256 20.9481 8.48991 21.4682 9.03562 21.2863L13.5101 19.7948C13.6136 19.7602 13.7078 19.7021 13.7849 19.6249C14.86 18.5497 15.9235 17.4927 16.968 16.4565V21.9054H16.9681ZM12.2498 18.7327L9.92498 19.5076L10.6999 17.1827L12.2498 18.7327ZM13.464 17.9581L11.475 15.9691C13.6831 13.7617 15.8049 11.6443 18.0213 9.43003L20.046 11.4234C19.1167 12.347 14.6835 16.7414 13.464 17.9581ZM22.181 9.29559C21.7999 9.67669 21.4206 10.0553 21.0428 10.4315L19.016 8.43605C19.3894 8.06292 19.7654 7.68703 20.1455 7.30692C20.6958 6.75656 21.6314 6.75727 22.181 7.30692C22.7292 7.85517 22.7292 8.74734 22.181 9.29559Z" fill="white"/>
<path d="M8.71776 7.08203H3.56245C3.17414 7.08203 2.85938 7.39684 2.85938 7.78511C2.85938 8.17338 3.17419 8.48823 3.56245 8.48823H8.71776C9.10608 8.48823 9.42084 8.17342 9.42084 7.78516C9.42084 7.39689 9.10608 7.08203 8.71776 7.08203Z" fill="white"/>
<path d="M11.6332 9.89453H3.56245C3.17414 9.89453 2.85938 10.2093 2.85938 10.5976C2.85938 10.9859 3.17419 11.3007 3.56245 11.3007H11.6331C12.0214 11.3007 12.3362 10.9859 12.3362 10.5976C12.3362 10.2093 12.0214 9.89453 11.6332 9.89453Z" fill="white"/>
</svg>
