<svg width="12" height="12" viewBox="0 0 12 12" fill="none" xmlns="http://www.w3.org/2000/svg">
<path fill-rule="evenodd" clip-rule="evenodd" d="M1.62489 11.0309L5.30458 9.47305C5.36396 9.44805 5.41708 9.41211 5.46396 9.3668L11.6702 3.16055C12.1093 2.72149 12.1124 2.00586 11.6733 1.5668L10.4343 0.327739C9.99521 -0.111324 9.27958 -0.108199 8.84052 0.330864L2.63427 6.53711C2.58896 6.58243 2.55302 6.63711 2.52802 6.69649L0.968644 10.3746C0.881144 10.5809 0.942081 10.7887 1.07489 10.9231C1.20771 11.0574 1.41708 11.1184 1.62489 11.0309ZM9.63574 1.12617L9.63887 1.12305L10.8764 2.36055L10.8732 2.36367L9.90449 3.33242L8.66699 2.09492L9.63574 1.12617ZM7.87168 2.89023L3.51543 7.24648L2.60605 9.39336L4.75293 8.48398L9.10918 4.12773L7.87168 2.89023Z" fill="#297DB6"/>
</svg>
