<svg width="22" height="16" viewBox="0 0 22 16" fill="none" xmlns="http://www.w3.org/2000/svg">
<path fill-rule="evenodd" clip-rule="evenodd" d="M21.09 6.5375C21.3713 7.2125 21.5729 7.86172 21.5799 7.99297V8.00234V8.00703C21.5729 8.13828 21.3713 8.7875 21.09 9.4625C20.8018 10.1586 20.3143 11.1664 19.6393 12.0078C18.751 13.1141 17.6611 13.9977 16.4002 14.6281C14.8393 15.4109 13.0229 15.807 11.0002 15.807C8.97988 15.807 7.16348 15.4109 5.6002 14.6281C4.33457 13.9953 3.24473 13.1117 2.36113 12.0055C1.68848 11.1664 1.20332 10.1586 0.912695 9.4625C0.631445 8.78516 0.429883 8.13594 0.422852 8.00469V8V7.99531C0.429883 7.86406 0.629102 7.21484 0.910352 6.53984C1.19863 5.84375 1.68379 4.83594 2.35879 3.99219C3.25176 2.88125 4.3416 2 5.59785 1.37188C7.15176 0.591406 8.97051 0.195312 10.9979 0.195312C13.0275 0.195312 14.8463 0.589063 16.4002 1.36953C17.6658 2.00234 18.7557 2.88594 19.6393 3.99219C20.3143 4.83359 20.8018 5.84141 21.09 6.5375ZM18.3314 10.9461C19.1893 9.87734 19.7072 8.40547 19.8408 7.99766C19.7072 7.58984 19.1869 6.11562 18.3244 5.0375C17.5908 4.11875 16.6908 3.3875 15.6455 2.86484C14.3307 2.20156 12.7674 1.86641 10.9979 1.86641C9.23535 1.86641 7.66973 2.20156 6.34316 2.86484C5.3002 3.3875 4.39785 4.11641 3.66191 5.03516C2.79941 6.11328 2.2791 7.5875 2.14551 7.99531C2.2791 8.40547 2.79941 9.88203 3.66191 10.9555C4.39551 11.8742 5.29551 12.6055 6.34082 13.1281C7.66504 13.7914 9.22832 14.1289 10.9908 14.1289C12.751 14.1289 14.3166 13.7914 15.6408 13.1281C16.6885 12.6008 17.5908 11.8719 18.3197 10.9578L18.3314 10.9461ZM10.9979 3.91719C8.75723 3.91719 6.93613 5.74063 6.93613 7.97891C6.93613 10.2172 8.75957 12.0406 10.9979 12.0406C13.2361 12.0406 15.0596 10.2172 15.0596 7.97891C15.0596 5.74063 13.2385 3.91719 10.9979 3.91719ZM12.6877 9.66875C13.14 9.21641 13.3885 8.61641 13.3885 7.97891C13.3885 7.34141 13.14 6.74141 12.6877 6.28906C12.2354 5.83672 11.6354 5.58828 10.9979 5.58828C10.3604 5.58828 9.76035 5.83672 9.30801 6.28906C8.85566 6.74141 8.60723 7.34141 8.60723 7.97891C8.60723 8.61641 8.85566 9.21641 9.30801 9.66875C9.76035 10.1211 10.3604 10.3695 10.9979 10.3695C11.6354 10.3695 12.2354 10.1211 12.6877 9.66875Z" fill="#136DF6"/>
</svg>
