<svg width="18" height="20" viewBox="0 0 18 20" fill="none" xmlns="http://www.w3.org/2000/svg">
<path fill-rule="evenodd" clip-rule="evenodd" d="M16.0426 0C16.8301 0 17.5332 0.46875 17.8332 1.19531C18.1332 1.92422 17.9692 2.75156 17.4114 3.30938L11.5872 9.43828V18.6539C11.5872 18.9984 11.3786 19.3078 11.0598 19.4367C10.9567 19.4766 10.8489 19.4977 10.7434 19.4977C10.5184 19.4977 10.2981 19.4086 10.1364 19.2398L7.202 16.2047C7.04965 16.0477 6.96528 15.8367 6.96528 15.6187V9.47812L0.56684 3.30703C0.0113717 2.74922 -0.152691 1.92188 0.149653 1.19531C0.451997 0.46875 1.15512 0 1.94028 0H16.0426ZM10.1481 8.49141L16.2184 2.11406C16.3168 2.01797 16.3028 1.9125 16.2747 1.84219C16.2442 1.77188 16.1809 1.6875 16.0426 1.6875H1.94028C1.802 1.6875 1.73637 1.77188 1.70825 1.84219C1.68012 1.9125 1.66372 2.01562 1.76215 2.11406L8.40903 8.53125C8.56606 8.68828 8.65512 8.90391 8.65512 9.12656V15.2766L9.902 16.6359V9.08906C9.902 8.86406 9.98872 8.65078 10.1481 8.49141Z" fill="#297DB6"/>
</svg>
