<svg width="23" height="23" viewBox="0 0 23 23" fill="none" xmlns="http://www.w3.org/2000/svg">
<path d="M22.1243 14.25H20.2493V12C20.2497 11.1244 20.0692 10.2582 19.7192 9.45563C19.3692 8.65305 18.8572 7.93141 18.2154 7.33592C18.7216 5.98124 20.1019 4.79858 20.1165 4.78592C20.175 4.73627 20.2169 4.66986 20.2365 4.59565C20.2561 4.52144 20.2524 4.44302 20.226 4.37096C20.1996 4.2989 20.1517 4.23667 20.0888 4.19269C20.0259 4.1487 19.9511 4.12507 19.8743 4.12499C18.7901 4.12499 17.8475 4.33785 17.0571 4.75892C17.2063 4.50867 17.3717 4.26845 17.5522 4.03981C17.8725 3.63258 18.2286 3.25488 18.6163 2.91125C18.6749 2.86164 18.7169 2.79523 18.7365 2.72098C18.7562 2.64674 18.7526 2.56825 18.7262 2.49612C18.6998 2.424 18.6519 2.36172 18.589 2.3177C18.526 2.27368 18.4511 2.25004 18.3743 2.24999C17.3606 2.24999 16.4665 2.43875 15.7052 2.81056C15.6 2.02649 15.2444 0.640768 14.042 0.0395966C13.99 0.0135567 13.9325 0 13.8743 0C13.8161 0 13.7587 0.0135567 13.7066 0.0395966C12.5056 0.640112 12.1493 2.02344 12.0438 2.80803C11.2849 2.43716 10.3922 2.24999 9.37431 2.24999C9.29755 2.25003 9.22265 2.27364 9.15973 2.31761C9.09681 2.36158 9.0489 2.4238 9.02247 2.49587C8.99604 2.56794 8.99236 2.64638 9.01193 2.72061C9.03151 2.79483 9.07339 2.86126 9.13192 2.91092C9.51974 3.25458 9.87595 3.63232 10.1963 4.03963C10.3764 4.26769 10.5414 4.50726 10.6904 4.75681C9.90151 4.33719 8.95979 4.12499 7.87431 4.12499C7.79755 4.12503 7.72265 4.14864 7.65973 4.19261C7.59681 4.23658 7.5489 4.2988 7.52247 4.37087C7.49604 4.44294 7.49236 4.52138 7.51193 4.59561C7.53151 4.66983 7.57339 4.73626 7.63192 4.78592C7.64668 4.79844 9.02692 5.98124 9.53326 7.33592C8.89138 7.93141 8.3794 8.65305 8.0294 9.45563C7.67941 10.2582 7.49894 11.1244 7.49931 12V12.043C7.08554 12.1216 6.538 12.3008 6.24559 12.5203C6.20404 12.5514 6.16035 12.5794 6.11486 12.6043C6.21362 11.7011 6.38847 10.7798 6.68631 10.333C6.71438 10.2921 6.73404 10.2459 6.74415 10.1973C6.75425 10.1487 6.75461 10.0986 6.74518 10.0498C6.73576 10.0011 6.71674 9.95468 6.68925 9.91333C6.66175 9.87199 6.62632 9.83651 6.585 9.80897C6.54368 9.78143 6.49731 9.76237 6.44857 9.75289C6.39983 9.74342 6.34969 9.74371 6.30107 9.75377C6.25244 9.76382 6.2063 9.78343 6.16531 9.81146C6.12433 9.83949 6.08931 9.87538 6.06231 9.91705C5.72232 10.427 5.48345 11.3617 5.35164 12.694C5.22575 12.6581 5.10756 12.5993 5.00303 12.5205C4.6075 12.2234 3.74462 12 3.37843 12C2.398 12 1.51337 12.3997 0.887543 13.1256C0.174247 13.9529 -0.130441 15.1288 0.0515746 16.3518L0.28595 17.9257C0.431546 18.9239 0.757373 19.8873 1.24754 20.769C1.85978 21.8659 2.92215 22.5014 4.04598 22.5014C4.32253 22.5012 4.59774 22.463 4.86395 22.3881C4.87248 22.3858 4.88089 22.3831 4.88917 22.3801L5.51645 22.1557C5.58627 22.1304 5.66273 22.1304 5.73254 22.1557L6.35978 22.3801C6.36807 22.3831 6.37651 22.3858 6.385 22.3881C6.65122 22.463 6.92645 22.5011 7.20301 22.5014C8.02492 22.5014 8.81382 22.161 9.418 21.5492C10.6892 22.1702 12.0845 22.4952 13.4993 22.5C15.8337 22.5 18.0891 21.6162 19.8509 20.0113C21.5339 18.4778 22.4993 16.5146 22.4993 14.625C22.4993 14.5255 22.4598 14.4301 22.3895 14.3598C22.3191 14.2895 22.2238 14.25 22.1243 14.25ZM12.2911 12.3703L13.8792 10.8281L15.4705 12.373L13.8831 13.9125L12.2911 12.3703ZM13.1536 14.25H11.0095C10.9548 14.0968 10.8902 13.9474 10.816 13.8028L11.7527 12.8931L13.1536 14.25ZM16.0088 12.8956L17.404 14.25H14.6121L16.0088 12.8956ZM14.4174 10.3054L16.0041 8.76439L17.5967 10.3113L16.0091 11.8508L14.4174 10.3054ZM14.6799 6.43292C15.3688 6.53216 16.0332 6.75933 16.6387 7.10272L16.0041 7.71894L14.6799 6.43292ZM15.4659 8.24169L13.879 9.7828L12.293 8.2431L13.8801 6.7018L15.4659 8.24169ZM11.7548 7.7203L11.1154 7.09958C11.7235 6.75568 12.3908 6.52898 13.0825 6.43124L11.7548 7.7203ZM11.7548 8.76561L13.3409 10.3055L11.7521 11.8483L10.1642 10.3103L11.7548 8.76561ZM11.2138 12.371L10.395 13.1662C10.3837 13.1527 10.3726 13.139 10.3611 13.1256C9.85574 12.5358 9.15351 12.1495 8.38482 12.0383L9.62589 10.8331L11.2138 12.371ZM10.9627 17.9257L11.1971 16.3518C11.2652 15.9038 11.2657 15.4481 11.1987 15H20.1827C19.9664 16.2383 19.2342 17.4788 18.1298 18.457C16.8242 19.6132 15.1798 20.25 13.4993 20.25C12.4774 20.2458 11.4692 20.0138 10.5483 19.5708C10.7411 19.0376 10.8799 18.4865 10.9628 17.9257H10.9627ZM18.8645 14.25L19.4993 13.6352V14.25H18.8645ZM19.4993 12.5911L18.134 13.9133L16.5476 12.3733L18.1352 10.8338L19.4993 12.1586V12.5911ZM19.4157 11.0318L18.6738 10.3115L19.094 9.90402C19.2406 10.2676 19.3484 10.6456 19.4157 11.0318ZM18.7483 9.19433L18.1355 9.78856L16.5425 8.24169L17.2795 7.526C17.8744 7.97975 18.3736 8.54681 18.7483 9.19447V9.19433ZM18.8881 4.94671C18.4574 5.42146 17.938 6.08914 17.6095 6.83699C17.2742 6.5937 16.9161 6.38363 16.5401 6.20975C16.5448 6.15135 16.552 6.09294 16.5611 6.03453C17.1653 5.45624 17.9451 5.09188 18.8881 4.94685V4.94671ZM17.3876 3.07171C16.7787 3.743 15.9929 4.79985 15.8189 5.92831C15.3776 5.78665 14.9221 5.6939 14.4606 5.65175C14.4166 5.51521 14.3603 5.36071 14.2888 5.19472C14.7493 4.31286 15.6462 3.34072 17.3876 3.07208V3.07171ZM13.8743 0.806565C14.8036 1.41196 14.9654 2.8003 14.9935 3.23938C14.5522 3.56325 14.1729 3.96394 13.8737 4.42227C13.7017 4.15921 13.5033 3.91433 13.2818 3.69139C13.118 3.52721 12.942 3.37575 12.7553 3.23835C12.7835 2.79819 12.9457 1.41149 13.8743 0.806565ZM10.3615 3.07264C12.4392 3.39514 13.3044 4.72096 13.6574 5.62907C13.0704 5.64846 12.4889 5.7493 11.9297 5.92869C11.918 5.85256 11.9035 5.77683 11.8864 5.70149L11.8996 5.68925C11.8928 5.68185 11.8855 5.67472 11.8788 5.66741C11.6351 4.63878 10.9231 3.69186 10.3615 3.07264ZM8.86037 4.94666C9.80443 5.09155 10.5836 5.45638 11.1876 6.03542C11.1967 6.09355 11.2039 6.15177 11.2085 6.20989C10.8325 6.38377 10.4744 6.59384 10.1392 6.83713C9.81053 6.08905 9.29111 5.42141 8.86037 4.94666ZM10.474 7.5223L11.2165 8.2431L9.62528 9.78833L9.00465 9.18721C9.37985 8.54077 9.87922 7.97494 10.474 7.5223ZM8.65806 9.89567L9.08692 10.3111L8.33068 11.0454C8.3983 10.6516 8.50806 10.2661 8.65806 9.89567ZM9.34618 20.4035C8.87082 21.2555 8.05398 21.75 7.19622 21.75C6.99453 21.7498 6.79377 21.7227 6.59931 21.6692L5.98525 21.4495C5.75198 21.3663 5.4971 21.3663 5.26384 21.4495L4.64931 21.6693C3.58993 21.9595 2.48753 21.4521 1.90243 20.4037C1.45645 19.6011 1.16009 18.7241 1.02779 17.8154L0.793418 16.2416C0.643418 15.2346 0.884918 14.2775 1.45562 13.6155C1.69355 13.3397 1.98897 13.1193 2.32114 12.9697C2.65331 12.8202 3.01419 12.7452 3.37843 12.75C3.61665 12.75 4.31312 12.9403 4.55279 13.1203C4.77068 13.2846 5.02318 13.397 5.29107 13.449C5.27261 13.7475 5.26229 14.0099 5.25653 14.2108C4.93243 14.138 4.76903 13.9891 4.76017 13.9808L4.76429 13.9849C4.72953 13.9497 4.68815 13.9218 4.64255 13.9027C4.59695 13.8836 4.54803 13.8737 4.49859 13.8736C4.44915 13.8735 4.40018 13.8831 4.35449 13.902C4.30881 13.9209 4.2673 13.9486 4.23237 13.9836C4.19743 14.0186 4.16976 14.0601 4.15094 14.1058C4.13212 14.1516 4.12253 14.2005 4.12271 14.25C4.12289 14.2994 4.13285 14.3483 4.152 14.3939C4.17116 14.4395 4.19913 14.4808 4.23432 14.5155C4.28462 14.5656 4.74512 15 5.62431 15C6.50425 15 6.96493 14.5648 7.01448 14.5152C7.0493 14.4803 7.07693 14.439 7.09577 14.3935C7.11462 14.348 7.12432 14.2992 7.12432 14.25C7.12432 14.2007 7.11462 14.152 7.09577 14.1065C7.07693 14.061 7.0493 14.0196 7.01448 13.9848C6.97966 13.95 6.93832 13.9224 6.89282 13.9035C6.84732 13.8847 6.79856 13.875 6.74931 13.875C6.70006 13.875 6.6513 13.8847 6.6058 13.9035C6.5603 13.9224 6.51896 13.95 6.48414 13.9848C6.48217 13.9868 6.322 14.1324 6.00601 14.207C6.01253 13.9804 6.02439 13.7151 6.04318 13.4303C6.27946 13.3721 6.50147 13.2666 6.69578 13.1202C6.93545 12.9403 7.63192 12.7498 7.87014 12.7498C8.23438 12.745 8.59525 12.82 8.92743 12.9695C9.25961 13.119 9.55505 13.3394 9.793 13.6152C10.3637 14.2771 10.6051 15.2343 10.4552 16.2412L10.2208 17.8151C10.0885 18.7238 9.79217 19.6008 9.34618 20.4035ZM19.3456 19.4569C17.7224 20.9356 15.6462 21.75 13.4993 21.75C12.2541 21.7456 11.0247 21.4712 9.89593 20.9456C9.93226 20.888 9.96756 20.8294 10.0012 20.769C10.0935 20.6037 10.1799 20.4354 10.2604 20.2641C11.2728 20.7445 12.3787 20.9957 13.4993 21C15.3632 21 17.1842 20.2963 18.6271 19.0184C19.895 17.8954 20.7248 16.4478 20.9421 15H21.7349C21.6157 16.5634 20.7598 18.1687 19.3456 19.4569Z" fill="white"/>
</svg>
