<svg width="24" height="24" viewBox="0 0 24 24" fill="none" xmlns="http://www.w3.org/2000/svg">
<path fill-rule="evenodd" clip-rule="evenodd" d="M23.6701 10.1071L13.3408 0.499084C12.5802 -0.166315 11.4226 -0.166315 10.662 0.499084L0.329871 10.1071C-0.0809706 10.464 -0.111506 11.073 0.257696 11.4701C0.626899 11.8672 1.25982 11.8967 1.66788 11.5399L12 1.93184L22.3321 11.5399C22.743 11.8967 23.3731 11.8672 23.7423 11.4701C24.1115 11.073 24.081 10.464 23.6701 10.1071ZM20.9108 13.6702C20.3584 13.6702 19.9114 14.1022 19.9114 14.6361V22.0682H15.9418V15.6288C15.9418 14.561 15.048 13.697 13.9431 13.697H10.0568C8.95196 13.697 8.0581 14.561 8.0581 15.6288V22.0682H4.08848V14.6361C4.08848 14.1022 3.64155 13.6702 3.08914 13.6702C2.53672 13.6702 2.08979 14.1022 2.08979 14.6361V22.0682C2.08979 23.1361 2.98365 24 4.08848 24H19.9114C21.0163 24 21.9101 23.1361 21.9101 22.0682V14.6361C21.9101 14.1022 21.4632 13.6702 20.9108 13.6702ZM10.0568 15.6288H13.9431V22.0682H10.0568V15.6288Z" fill="white"/>
</svg>
