<svg width="45" height="27" viewBox="0 0 45 27" fill="none" xmlns="http://www.w3.org/2000/svg">
<path d="M22.5002 1.99999C26.7437 1.99804 30.8389 3.04076 34 4.92812L35.0003 4.18299C31.5626 2.13321 27.1123 1 22.5002 1C17.888 1 13.4377 2.13321 10 4.18299L11.0003 4.92812C14.1614 3.04074 18.2566 1.99801 22.5002 1.99999Z" fill="black"/>
<path d="M22.5 24.9992C20.0528 24.9986 17.6337 24.6511 15.4032 23.9798C13.1727 23.3085 11.1818 22.3287 9.5625 21.1055L8.4375 21.7672C10.1971 23.0972 12.361 24.1625 14.7856 24.8921C17.2102 25.6217 19.8399 25.9991 22.5 25.9991C25.1601 25.9991 27.7898 25.6217 30.2144 24.8921C32.639 24.1625 34.8029 23.0972 36.5625 21.7672L35.4375 21.1055C33.8182 22.3287 31.8272 23.3085 29.5968 23.9798C27.3663 24.6511 24.9472 24.9986 22.5 24.9992Z" fill="black"/>
<path d="M35.0737 12.0828C35.1911 12.5512 35.2501 13.0252 35.25 13.5C35.2511 14.3643 35.0538 15.2235 34.6649 16.048C34.3905 15.8185 34.0444 15.6315 33.6507 15.5C32.6458 15.1614 31.5826 14.9057 30.4849 14.7385C31.8482 13.9298 32.7226 12.8175 32.9443 11.6099C33.1661 10.4023 32.7201 9.18218 31.6897 8.17804C30.6593 7.17389 29.1153 6.45454 27.3466 6.15467C25.578 5.8548 23.7061 5.99496 22.0813 6.54892C21.6629 6.30744 21.1618 6.13829 20.6222 6.0564C20.0825 5.97451 19.521 5.98239 18.987 6.07935C18.453 6.17631 17.963 6.35936 17.5602 6.61238C17.1574 6.86539 16.8542 7.18058 16.6773 7.53017C16.194 7.47723 15.6993 7.49495 15.2273 7.58209C14.7554 7.66923 14.3174 7.82373 13.9439 8.03487C13.5704 8.24601 13.2701 8.50876 13.064 8.80491C12.8578 9.10107 12.7507 9.42356 12.75 9.75005C12.7495 10.0462 12.8373 10.3395 13.0081 10.6129C12.9641 10.6284 12.9191 10.6441 12.8736 10.6597C12.4529 10.8056 11.976 10.9709 11.6375 11.281C11.3015 11.5888 11.2123 11.9415 11.1336 12.2528C11.1052 12.3862 11.063 12.5182 11.0072 12.6477C10.9409 12.768 10.8621 12.8849 10.7711 12.9977C10.5562 13.2827 10.3125 13.6057 10.3125 14C10.3125 14.3944 10.5562 14.7174 10.7711 15.0024C10.862 15.1152 10.9409 15.2321 11.0071 15.3524C11.0628 15.4819 11.1051 15.6138 11.1335 15.7472C11.2122 16.0585 11.3015 16.4114 11.6375 16.7192C11.976 17.0292 12.4531 17.1945 12.8736 17.3404C13.0532 17.3986 13.2265 17.4652 13.3921 17.5397C13.5465 17.6206 13.6922 17.7086 13.8281 17.8031C14.1672 18.0266 14.5516 18.2799 15.1058 18.3999C15.6407 18.5157 16.1677 18.4637 16.6327 18.4179C16.8367 18.394 17.043 18.3797 17.25 18.375C17.457 18.3797 17.6633 18.3939 17.8673 18.4177C17.911 18.422 17.9552 18.4264 17.9999 18.4306C17.86 18.5823 17.7581 18.7481 17.6982 18.9216C17.6283 19.1056 17.6213 19.2978 17.6778 19.4839C17.7343 19.67 17.8529 19.8452 18.0247 19.9966C18.726 20.6022 20.0742 20.7632 21.2346 20.3779C22.5585 19.9336 24.0201 19.7024 25.5022 19.7026C26.9843 19.7028 28.4458 19.9345 29.7694 20.3791C29.812 20.3933 29.8549 20.4067 29.898 20.4194C27.7408 21.4493 25.1533 22.0021 22.5 22C15.4697 22 9.75 18.187 9.75 13.5C9.75 8.81311 15.4697 5.00005 22.5 5.00005C25.2942 4.99404 28.0126 5.60581 30.2296 6.73961C32.401 7.84762 33.9853 9.38876 34.7518 11.1387L36.193 10.8614C35.3367 8.90573 33.5664 7.18328 31.1399 5.9448C28.6618 4.67737 25.6233 3.99344 22.5 4.00005C14.6425 4.00005 8.25 8.26173 8.25 13.5C8.25 18.7384 14.6425 23 22.5 23C26.1651 23.0018 29.6893 22.0588 32.3355 20.3682C32.5825 20.2737 32.7994 20.1479 32.9738 19.9979C33.0482 19.9341 33.1128 19.8655 33.1665 19.793C35.4777 18.0592 36.753 15.8196 36.75 13.5C36.7501 12.9697 36.6843 12.4403 36.5531 11.9173L35.0737 12.0828ZM33.6937 16.941C33.7116 16.9818 33.7163 17.0246 33.7077 17.0667C33.699 17.1087 33.6771 17.1491 33.6434 17.1851C33.3873 17.4063 32.7952 17.4497 32.2956 17.2842C29.9534 16.4986 27.2673 16.2967 24.7216 16.7148L24.7076 16.7153V16.7171C23.9145 16.8479 23.146 17.0379 22.4168 17.2836C21.9163 17.4499 21.3236 17.4066 21.0657 17.1839C21.0325 17.148 21.011 17.1077 21.0026 17.0659C20.9942 17.024 20.999 16.9814 21.0169 16.9409C21.0731 16.7737 21.2919 16.5418 21.7367 16.3922C23.4797 15.8072 25.404 15.5025 27.3555 15.5025C29.3069 15.5025 31.2312 15.8072 32.9742 16.3922C33.4186 16.5419 33.6375 16.7738 33.6937 16.941ZM31.5 11C31.5021 11.7238 31.2088 12.4343 30.6515 13.0554C30.0942 13.6765 29.2939 14.1848 28.3364 14.5259C26.8398 14.456 25.3361 14.5464 23.8824 14.7937C24.0717 14.5476 24.176 14.2765 24.1875 14C24.1875 13.6057 23.9438 13.2827 23.7289 12.9977C23.638 12.8849 23.5591 12.768 23.4929 12.6477C23.4607 12.5785 23.4348 12.5081 23.4153 12.4368C23.9127 12.7571 24.5609 12.953 25.2501 12.9912C25.9393 13.0294 26.6271 12.9076 27.1971 12.6464C27.767 12.3853 28.184 12.0008 28.3775 11.5582C28.5709 11.1155 28.5289 10.6419 28.2586 10.2175C27.9882 9.79318 27.5062 9.44415 26.8941 9.22959C26.2819 9.01503 25.5774 8.94812 24.8997 9.04021C24.2221 9.13229 23.613 9.3777 23.1757 9.73486C22.7383 10.092 22.4996 10.539 22.5 11C22.5 11.0077 22.5 11.0154 22.5 11.0231C22.2302 10.8804 21.9371 10.7586 21.6262 10.6598C21.4466 10.6016 21.2733 10.535 21.1076 10.4605C21.0594 10.4371 21.0103 10.4102 20.9603 10.3807C21.4001 10.2811 21.8044 10.122 22.1478 9.91345C22.4912 9.70488 22.7664 9.45129 22.956 9.16856C23.1456 8.88583 23.2456 8.58005 23.2498 8.27036C23.2539 7.96067 23.1622 7.65375 22.9802 7.3688C23.7694 7.12415 24.6297 6.99825 25.5 7.00005C27.0907 7.00124 28.6158 7.42305 29.7407 8.17294C30.8655 8.92282 31.4982 9.93955 31.5 11ZM24 11C24 10.8023 24.088 10.6089 24.2528 10.4445C24.4176 10.28 24.6519 10.1519 24.926 10.0762C25.2001 10.0005 25.5017 9.98068 25.7926 10.0193C26.0836 10.0578 26.3509 10.1531 26.5607 10.2929C26.7704 10.4328 26.9133 10.611 26.9712 10.805C27.0291 10.9989 26.9994 11.2 26.8858 11.3827C26.7723 11.5655 26.58 11.7216 26.3334 11.8315C26.0867 11.9414 25.7967 12 25.5 12C25.1023 11.9997 24.7211 11.8943 24.4399 11.7068C24.1587 11.5193 24.0005 11.2652 24 11ZM19.875 7.00005C20.2458 7.00005 20.6084 7.07336 20.9167 7.21071C21.225 7.34806 21.4654 7.54329 21.6073 7.77169C21.7492 8.0001 21.7863 8.25143 21.714 8.49391C21.6416 8.73639 21.463 8.95912 21.2008 9.13393C20.9386 9.30875 20.6045 9.4278 20.2408 9.47603C19.8771 9.52426 19.5001 9.49951 19.1575 9.4049C18.8149 9.31029 18.522 9.15007 18.316 8.94451C18.11 8.73895 18 8.49727 18 8.25005C18.0006 7.91864 18.1983 7.60092 18.5498 7.36658C18.9013 7.13225 19.3779 7.00043 19.875 7.00005ZM16.125 8.50005C16.2597 8.49993 16.3941 8.50945 16.5258 8.52842C16.5843 8.83921 16.7395 9.13844 16.9813 9.40699C17.2232 9.67554 17.5464 9.9075 17.9303 10.088C17.836 10.312 17.6497 10.514 17.3925 10.6713C17.1353 10.8286 16.8173 10.9348 16.4745 10.9782C16.1316 11.0215 15.7773 11.0002 15.4516 10.9166C15.1259 10.833 14.8417 10.6905 14.6309 10.5051C14.4201 10.3197 14.2911 10.0987 14.2584 9.86704C14.2258 9.6354 14.2907 9.40228 14.446 9.19391C14.6013 8.98554 14.8407 8.8102 15.1373 8.68761C15.4339 8.56503 15.776 8.50007 16.125 8.50005ZM17.25 17.375C16.9695 17.3789 16.6897 17.3968 16.4132 17.4285C16.0821 17.4611 15.7695 17.492 15.5694 17.4486C15.3538 17.4019 15.125 17.2513 14.883 17.0918C14.6945 16.9614 14.4913 16.8408 14.2751 16.731C14.0497 16.6265 13.8126 16.5336 13.566 16.4531C13.2654 16.3489 12.9815 16.2505 12.8507 16.1307C12.7223 16.013 12.6692 15.803 12.6129 15.5807C12.5735 15.3988 12.5137 15.2191 12.4342 15.0432C12.3457 14.8745 12.2379 14.7105 12.1117 14.5529C11.9576 14.3494 11.8125 14.1571 11.8125 14C11.8125 13.843 11.9576 13.6506 12.1113 13.4469C12.2376 13.2893 12.3454 13.1253 12.4338 12.9566C12.5134 12.7807 12.5732 12.601 12.6127 12.4191C12.6689 12.1969 12.7219 11.987 12.8503 11.8691C12.9816 11.7493 13.2651 11.6509 13.5656 11.5467C13.6717 11.5099 13.7793 11.4726 13.8867 11.4324C14.2839 11.6676 14.7588 11.8369 15.2727 11.9265C15.7866 12.0161 16.325 12.0235 16.8441 11.9481C17.3631 11.8728 17.8481 11.7167 18.2595 11.4927C18.671 11.2687 18.9972 10.9831 19.2117 10.6591C19.3538 10.7369 19.4891 10.82 19.6171 10.9079C19.8057 11.0383 20.0089 11.1589 20.225 11.2687C20.4505 11.3732 20.6876 11.4662 20.9342 11.5467C21.2348 11.6509 21.5187 11.7493 21.6495 11.8691C21.7779 11.9868 21.831 12.1967 21.8873 12.4191C21.9267 12.601 21.9865 12.7807 22.066 12.9566C22.1545 13.1253 22.2623 13.2892 22.3885 13.4469C22.5424 13.6507 22.6875 13.843 22.6875 14C22.6875 14.1571 22.5424 14.3495 22.3887 14.5532C22.2625 14.7108 22.1546 14.8747 22.0662 15.0434C22.0402 15.0969 22.0166 15.1524 21.9944 15.2133C21.6789 15.3008 21.3676 15.3962 21.0606 15.4996C20.2874 15.7596 19.7242 16.2163 19.5535 16.7212C19.5035 16.8662 19.4881 17.0155 19.5079 17.1637C19.3061 17.2949 19.1141 17.409 18.9309 17.4486C18.7306 17.4919 18.418 17.4611 18.0872 17.4285C17.8105 17.3968 17.5307 17.3789 17.25 17.375ZM30.4424 19.4852C28.9099 18.9708 27.218 18.7028 25.5022 18.7025C23.7865 18.7023 22.0944 18.9699 20.5616 19.4839C20.0612 19.6502 19.4684 19.607 19.2106 19.3839C19.1774 19.348 19.1558 19.3077 19.1474 19.2659C19.139 19.224 19.1438 19.1814 19.1617 19.1409C19.2179 18.9737 19.4367 18.7418 19.8815 18.5922C20.2136 18.4802 20.5559 18.3775 20.9033 18.2855C21.2601 18.3663 21.6376 18.3983 22.0134 18.3796C22.3891 18.361 22.7553 18.292 23.0902 18.177C23.6824 17.9774 24.3046 17.8203 24.9465 17.7082C25.3668 17.6958 25.7877 17.6976 26.2077 17.7134C27.9185 17.7764 29.591 18.0757 31.1192 18.5922C31.5635 18.7418 31.7821 18.9735 31.8385 19.141C31.8535 19.1836 31.8583 19.2275 31.8525 19.271C31.7256 19.3624 31.5958 19.4518 31.4632 19.5394C31.2962 19.5763 31.1199 19.5906 30.9445 19.5813C30.7692 19.572 30.5985 19.5393 30.4424 19.4852Z" fill="black"/>
<path d="M43.5 0V5H41.25V0H39.75V5H37.5V0H36V8.25C36.0008 8.66285 36.2202 9.06226 36.6195 9.37783C37.0188 9.6934 37.5724 9.90488 38.1827 9.975L37.5049 24.8861C37.5017 24.9236 37.5 24.9618 37.5 24.9999C37.5 25.5303 37.8161 26.039 38.3787 26.4141C38.9413 26.7892 39.7044 26.9999 40.5 26.9999C41.2956 26.9999 42.0587 26.7892 42.6213 26.4141C43.1839 26.039 43.5 25.5303 43.5 24.9999C43.5 24.9618 43.4983 24.9237 43.4951 24.8861L43.3406 21.4849L41.8414 21.5151L41.9962 24.9235C41.9962 24.9285 41.9968 24.9335 41.9973 24.9385C41.9991 24.9588 42.0001 24.9794 42.0001 25C42.0001 25.2652 41.8421 25.5196 41.5608 25.7071C41.2794 25.8946 40.8979 26 40.5001 26C40.1023 26 39.7207 25.8946 39.4394 25.7071C39.1581 25.5196 39.0001 25.2652 39.0001 25C39.0001 24.9794 39.0011 24.9588 39.0029 24.9385C39.0034 24.9335 39.0037 24.9285 39.0039 24.9235L39.6822 10H41.3178L41.7959 20.5151L43.2952 20.4849L42.817 9.97513C43.4274 9.90504 43.9811 9.69356 44.3804 9.37796C44.7798 9.06236 44.9992 8.6629 45 8.25V0H43.5ZM43.5 8.25C43.4997 8.44885 43.381 8.63949 43.1701 8.78009C42.9592 8.9207 42.6733 8.99978 42.375 9H38.625C38.3267 8.99978 38.0408 8.9207 37.8299 8.78009C37.619 8.63949 37.5003 8.44885 37.5 8.25V6H43.5V8.25Z" fill="black"/>
<path d="M6.79219 9.42138C8.24531 8.5895 9.21431 6.94012 9.21431 5C9.21431 2.19625 7.19062 0 4.60716 0C2.02369 0 0 2.19625 0 5C0 6.84581 0.877125 8.42837 2.21362 9.29425L2.04581 12.9849L3.54506 13.0151L3.68653 9.90425C4.21386 10.0167 4.77743 10.0304 5.31562 9.94375L5.99653 24.9234C5.99653 24.9284 5.99709 24.9334 5.99756 24.9384C5.99934 24.9588 6.00037 24.9793 6.00037 24.9999C6.00037 25.2652 5.84234 25.5195 5.56104 25.707C5.27973 25.8946 4.8982 25.9999 4.50037 25.9999C4.10255 25.9999 3.72102 25.8946 3.43971 25.707C3.15841 25.5195 3.00038 25.2652 3.00038 24.9999C3.00038 24.9793 3.00141 24.9588 3.00319 24.9384C3.00319 24.9334 3.00403 24.9284 3.00422 24.9234L3.49997 14.0151L2.00072 13.9848L1.50487 24.8862C1.50169 24.9237 1.5 24.9619 1.5 25C1.5 25.5304 1.81607 26.0391 2.37868 26.4142C2.94129 26.7893 3.70435 27 4.5 27C5.29565 27 6.05871 26.7893 6.62132 26.4142C7.18393 26.0391 7.5 25.5304 7.5 25C7.5 24.9619 7.49831 24.9239 7.49512 24.8862L6.79219 9.42138ZM1.5 5C1.5 2.60731 3.10659 1 4.60716 1C6.10772 1 7.71431 2.60731 7.71431 5C7.71431 7.39269 6.10762 9 4.60716 9C3.10669 9 1.5 7.39269 1.5 5Z" fill="black"/>
<path d="M14.2885 12.8418L13.5386 14.3418L14.9617 14.658L15.7117 13.158L14.2885 12.8418Z" fill="black"/>
<path d="M18.5127 15.0254L16.2627 15.5254L16.737 16.4741L18.987 15.9741L18.5127 15.0254Z" fill="black"/>
<path d="M18.416 12.584L17.584 13.416L19.834 14.416L20.666 13.5839L18.416 12.584Z" fill="black"/>
</svg>
