<svg width="24" height="24" viewBox="0 0 24 24" fill="none" xmlns="http://www.w3.org/2000/svg">
<g opacity="0.65">
<path fill-rule="evenodd" clip-rule="evenodd" d="M20.8125 2.98047H3.1875C2.25937 2.98047 1.5 3.73984 1.5 4.66797V19.3281C1.5 20.2563 2.25937 21.0156 3.1875 21.0156H20.8125C21.7406 21.0156 22.5 20.2563 22.5 19.3281V4.66797C22.5 3.73984 21.7406 2.98047 20.8125 2.98047ZM20.8125 19.3234L20.8102 19.3258H3.19219L3.18984 19.3234V14.3359L7.53984 9.8875L12.6328 16.2133C12.9141 16.532 13.3875 16.593 13.7391 16.3539L17.5008 13.8109L20.8125 15.3695V19.3234ZM18.0445 12.1047L20.8125 13.2461L20.8102 4.67031L20.8078 4.66797H3.18984L3.1875 4.67031V11.9219L6.96562 8.05703C7.12969 7.89062 7.35703 7.79688 7.59141 7.80391C7.82578 7.81094 8.04844 7.91406 8.20312 8.08984L13.4086 14.5398L17.0602 12.0766C17.3602 11.8727 17.7563 11.8844 18.0445 12.1047ZM16.3594 6.39766C15.0539 6.39766 13.9922 7.45937 13.9922 8.76484C13.9922 10.0703 15.0539 11.132 16.3594 11.132C17.6648 11.132 18.7266 10.0703 18.7266 8.76484C18.7266 7.45937 17.6648 6.39766 16.3594 6.39766ZM15.6797 8.76484C15.6797 9.13984 15.9844 9.44453 16.3594 9.44453C16.7344 9.44453 17.0391 9.13984 17.0391 8.76484C17.0391 8.38984 16.7344 8.08516 16.3594 8.08516C15.9844 8.08516 15.6797 8.38984 15.6797 8.76484Z" fill="#52606D"/>
</g>
</svg>
