<svg width="37" height="31" viewBox="0 0 37 31" fill="none" xmlns="http://www.w3.org/2000/svg">
<path d="M18.7856 5.62584C20.0199 4.12597 20.0199 1.77732 18.7856 0.277454C18.5248 -0.04141 18.0472 -0.093101 17.7197 0.162309C17.3921 0.417719 17.339 0.88273 17.6014 1.20007C18.3838 2.14926 18.3838 3.75396 17.5999 4.70613C16.3671 6.206 16.3671 8.55465 17.5999 10.0545C17.75 10.2375 17.9699 10.3321 18.1928 10.3321C18.358 10.3321 18.5248 10.2789 18.6659 10.1697C18.9934 9.91425 19.0465 9.45076 18.7841 9.1319C18.0032 8.18264 18.0032 6.578 18.7856 5.62584Z" fill="black"/>
<path d="M28.0519 11.8086H6.82288C5.56882 11.8086 4.54834 12.8021 4.54834 14.0229V15.4991C4.54834 20.7663 7.53708 25.5434 12.3469 27.9658C12.7185 28.1519 13.1764 28.0116 13.369 27.6484C13.56 27.2867 13.416 26.841 13.0429 26.6534C8.73953 24.4864 6.06467 20.2127 6.06467 15.4991V14.0229C6.06467 13.6154 6.40436 13.2847 6.82288 13.2847H28.0519C28.4704 13.2847 28.8101 13.6154 28.8101 14.0229V15.4991C28.8101 20.2126 26.1352 24.4863 21.8303 26.6519C21.4573 26.8394 21.3132 27.2852 21.5043 27.6469C21.6393 27.9008 21.9046 28.0469 22.179 28.0469C22.2973 28.0469 22.4156 28.0204 22.5263 27.9643C27.3377 25.5432 30.3264 20.7677 30.3264 15.499V14.0228C30.3264 12.8021 29.3059 11.8086 28.0519 11.8086Z" fill="black"/>
<path d="M34.8192 27.0265C34.701 26.7504 34.425 26.5703 34.1187 26.5703H0.758859C0.452578 26.5703 0.176578 26.7504 0.0583018 27.0265C-0.059974 27.3025 0.00520566 27.6199 0.222068 27.831L1.92193 29.4874C2.92578 30.4631 4.25709 31.0005 5.67491 31.0005H29.1996C30.6175 31.0005 31.9503 30.4632 32.9557 29.4874L34.6556 27.831C34.8723 27.6199 34.9375 27.3025 34.8192 27.0265ZM31.8821 28.4436C31.1664 29.1404 30.2126 29.5242 29.2012 29.5242H5.67491C4.66353 29.5242 3.70971 29.1404 2.99402 28.4436L2.58766 28.048H32.2885L31.8821 28.4436Z" fill="black"/>
<path d="M34.9254 15.2941C32.8829 14.0157 29.6197 15.4033 29.2542 15.5642C28.8736 15.734 28.7038 16.171 28.8782 16.543C29.0525 16.915 29.4999 17.0788 29.8835 16.9091C30.6144 16.5858 32.9587 15.8196 34.105 16.5385C34.6221 16.8618 34.8753 17.4893 34.8753 18.4517C34.8753 21.4071 28.7523 23.1934 26.3882 23.6333L25.8515 23.7366C25.4405 23.8149 25.1736 24.2031 25.254 24.6032C25.3253 24.9545 25.6422 25.1981 25.997 25.1981C26.0456 25.1981 26.094 25.1936 26.1441 25.1833L26.6763 25.0815C27.0736 25.0076 36.3917 23.2288 36.3917 18.4517C36.3917 16.9667 35.8974 15.9052 34.9254 15.2941Z" fill="black"/>
<path d="M23.3405 5.62645C24.5733 4.12658 24.5733 1.77793 23.3405 0.278065C23.0781 -0.0407992 22.6035 -0.0939434 22.2745 0.16292C21.947 0.41833 21.8939 0.881818 22.1562 1.20068C22.9372 2.14987 22.9372 3.75457 22.1547 4.70674C20.9204 6.20661 20.9204 8.55526 22.1547 10.0551C22.3048 10.2382 22.5247 10.3327 22.7476 10.3327C22.9129 10.3327 23.0812 10.2795 23.2207 10.1703C23.5482 9.91486 23.6013 9.44985 23.339 9.13251C22.5565 8.18325 22.5565 6.57861 23.3405 5.62645Z" fill="black"/>
<path d="M14.2423 5.62645C15.4751 4.12658 15.4751 1.77793 14.2423 0.278065C13.9815 -0.0407992 13.5054 -0.0939434 13.1763 0.16292C12.8503 0.416807 12.7973 0.881818 13.0581 1.19923C13.839 2.14842 13.839 3.75312 13.0566 4.70529C11.8223 6.20515 11.8223 8.5538 13.0566 10.0537C13.2067 10.2367 13.4265 10.3312 13.6494 10.3312C13.8147 10.3312 13.983 10.2781 14.1226 10.1703C14.4501 9.91493 14.5032 9.44992 14.2408 9.13257C13.4584 8.18179 13.4584 6.57861 14.2423 5.62645Z" fill="black"/>
</svg>
