<svg width="15" height="15" viewBox="0 0 15 15" fill="none" xmlns="http://www.w3.org/2000/svg">
<path d="M14.8767 2.42836L11.449 0.0496895C11.2621 -0.0798262 11.0109 0.0591663 11.0109 0.289767V1.57545H1.24542C0.660344 1.57545 0.185547 2.06508 0.185547 2.66843V8.47768H2.30529V3.76458H11.0079V5.05342C11.0079 5.28718 11.259 5.42301 11.4459 5.29349L14.8736 2.91167C15.0421 2.79795 15.0421 2.54524 14.8767 2.42836Z" fill="#136DF6"/>
<path d="M12.6955 11.2326H3.99289V9.94696C3.99289 9.7132 3.74171 9.57736 3.55485 9.70688L0.12406 12.0855C-0.0413533 12.1993 -0.0413533 12.452 0.12406 12.5689L3.55179 14.9507C3.73865 15.0802 3.98983 14.9412 3.98983 14.7106V13.4218H13.7523C14.3374 13.4218 14.8121 12.9321 14.8121 12.3288V6.51953H12.6924V11.2326H12.6955Z" fill="#136DF6"/>
</svg>
