<svg width="19" height="19" viewBox="0 0 19 19" fill="none" xmlns="http://www.w3.org/2000/svg">
<path fill-rule="evenodd" clip-rule="evenodd" d="M13.9443 12.9492L17.9619 16.9648C18.2354 17.2402 18.2354 17.6855 17.9639 17.9609C17.8252 18.0977 17.6475 18.166 17.4658 18.166C17.2842 18.166 17.1045 18.0977 16.9678 17.9609L12.9502 13.9434C11.6514 15.0195 9.98535 15.666 8.16699 15.666C4.02441 15.666 0.666992 12.3086 0.666992 8.16602C0.666992 4.02344 4.02441 0.666016 8.16699 0.666016C12.3096 0.666016 15.667 4.02344 15.667 8.16602C15.667 9.98438 15.0205 11.6504 13.9443 12.9492ZM8.16764 14.2598C8.99186 14.2598 9.78874 14.0996 10.5387 13.7813C11.2653 13.4746 11.9157 13.0352 12.4762 12.4747C13.0368 11.9141 13.4762 11.2618 13.7829 10.5371C14.1012 9.78715 14.2614 8.99027 14.2614 8.16606C14.2614 7.34184 14.1012 6.54496 13.7829 5.79496C13.4762 5.07035 13.0368 4.41801 12.4762 3.85746C11.9157 3.29692 11.2633 2.85746 10.5387 2.55082C9.78874 2.23246 8.99186 2.07231 8.16764 2.07231C7.34342 2.07231 6.54655 2.23246 5.79655 2.55082C5.07194 2.85746 4.4196 3.29692 3.85905 3.85746C3.2985 4.41801 2.85905 5.07035 2.55241 5.79496C2.23405 6.54496 2.07389 7.34184 2.07389 8.16606C2.07389 8.99027 2.23405 9.78715 2.55241 10.5371C2.85905 11.2618 3.2985 11.9141 3.85905 12.4747C4.4196 13.0352 5.07194 13.4746 5.79655 13.7813C6.54655 14.0996 7.34342 14.2598 8.16764 14.2598Z" fill="#1B2E4B"/>
</svg>
