<svg width="24" height="24" viewBox="0 0 24 24" fill="none" xmlns="http://www.w3.org/2000/svg">
<path d="M11.9998 7.59961C11.0791 7.59961 10.1791 7.85766 9.41358 8.34114C8.64806 8.82462 8.05141 9.51181 7.69907 10.3158C7.34674 11.1198 7.25456 12.0045 7.43417 12.858C7.61379 13.7115 8.05714 14.4955 8.70817 15.1109C9.35919 15.7262 10.1886 16.1453 11.0916 16.3151C11.9946 16.4848 12.9306 16.3977 13.7812 16.0647C14.6318 15.7317 15.3588 15.1677 15.8703 14.4441C16.3818 13.7205 16.6549 12.8698 16.6549 11.9996C16.6535 10.8331 16.1626 9.71467 15.2899 8.8898C14.4172 8.06493 13.234 7.60093 11.9998 7.59961V7.59961ZM11.9998 14.7996C11.4139 14.7996 10.8412 14.6354 10.354 14.3277C9.86687 14.0201 9.48718 13.5828 9.26297 13.0711C9.03876 12.5595 8.9801 11.9965 9.0944 11.4534C9.2087 10.9102 9.49083 10.4113 9.90512 10.0197C10.3194 9.62812 10.8472 9.36145 11.4219 9.25341C11.9965 9.14537 12.5921 9.20082 13.1334 9.41275C13.6747 9.62467 14.1374 9.98355 14.4629 10.444C14.7884 10.9045 14.9621 11.4458 14.9621 11.9996C14.9612 12.742 14.6488 13.4537 14.0935 13.9786C13.5381 14.5035 12.7852 14.7988 11.9998 14.7996V14.7996Z" fill="white"/>
<path d="M23.6137 15.3159L21.9331 14.0083C22.231 12.6842 22.231 11.3158 21.9331 9.9917L23.6137 8.68405C23.8075 8.53394 23.9385 8.32351 23.9831 8.09045C24.0278 7.85739 23.9832 7.61692 23.8573 7.4121L22.1322 4.58795C22.0075 4.38247 21.8094 4.22568 21.5735 4.14569C21.3376 4.0657 21.0793 4.06775 20.8448 4.15145L18.805 4.8738C17.7424 3.96634 16.4888 3.2815 15.1264 2.8642L14.7685 0.835654C14.728 0.60187 14.6007 0.389369 14.4095 0.236238C14.2183 0.0831077 13.9756 -0.000640838 13.7249 3.69267e-06H10.2748C10.0242 -0.000632636 9.78151 0.0831125 9.59028 0.236231C9.39905 0.38935 9.27176 0.601834 9.23122 0.835604L8.87352 2.8642C7.51118 3.28149 6.25757 3.96633 5.19497 4.8738L3.15494 4.15135C2.92049 4.0677 2.66219 4.06569 2.42631 4.14569C2.19044 4.22568 1.99241 4.38245 1.8677 4.5879L0.142633 7.41225C0.0168199 7.61708 -0.0277347 7.85756 0.0169489 8.09062C0.0616326 8.32367 0.192635 8.53408 0.386495 8.68415L2.06692 9.9917C1.769 11.3158 1.769 12.6842 2.06692 14.0083L0.386336 15.3159C0.192508 15.4661 0.0615406 15.6765 0.0168869 15.9095C-0.0277668 16.1426 0.0168092 16.3831 0.142633 16.5879L1.86776 19.412C1.99248 19.6175 2.19054 19.7743 2.42644 19.8543C2.66235 19.9343 2.92069 19.9322 3.15515 19.8485L5.19502 19.1262C6.25763 20.0337 7.51123 20.7185 8.87358 21.1358L9.23128 23.1643C9.2718 23.3981 9.39908 23.6106 9.5903 23.7637C9.78152 23.9169 10.0242 24.0006 10.2748 24H13.7249C13.9756 24.0006 14.2182 23.9169 14.4095 23.7638C14.6007 23.6107 14.728 23.3982 14.7685 23.1644L15.1263 21.1358C16.4886 20.7185 17.7422 20.0337 18.8048 19.1262L20.8448 19.8486C21.0793 19.9323 21.3376 19.9343 21.5734 19.8543C21.8093 19.7743 22.0073 19.6175 22.132 19.4121L23.857 16.5877C23.9829 16.383 24.0275 16.1426 23.9829 15.9095C23.9383 15.6765 23.8074 15.4661 23.6137 15.3159V15.3159ZM20.9351 18.1719L18.3902 17.2707L18.0049 17.6374C16.9446 18.6476 15.6184 19.372 14.1631 19.7361L13.6341 19.8679L13.1874 22.4H10.8128L10.3662 19.8679L9.83723 19.7361C8.38193 19.372 7.05575 18.6476 5.99548 17.6374L5.61011 17.2707L3.0648 18.1719L1.8777 16.2281L3.97402 14.5969L3.83119 14.0982C3.43841 12.724 3.43841 11.276 3.83119 9.90175L3.97402 9.40315L1.8777 7.77195L3.06506 5.82805L5.60995 6.72925L5.99532 6.36255C7.05559 5.35243 8.38177 4.62797 9.83707 4.2639L10.3661 4.1321L10.8126 1.6H13.1874L13.634 4.1321L14.1629 4.2639C15.6182 4.62797 16.9444 5.35243 18.0047 6.36255L18.3901 6.72925L20.935 5.82805L22.1224 7.7719L20.0261 9.40315L20.1689 9.90175C20.5617 11.276 20.5617 12.724 20.1689 14.0982L20.0261 14.5969L22.1224 16.228L20.9351 18.1719Z" fill="white"/>
</svg>
