<svg width="38" height="28" viewBox="0 0 38 28" fill="none" xmlns="http://www.w3.org/2000/svg">
<path d="M36.177 8.70058H33.0558C32.7458 8.70058 32.4948 8.91098 32.4948 9.17047C32.4948 9.43019 32.7458 9.6406 33.0558 9.6406H36.177C36.5638 9.6406 36.8783 9.90397 36.8783 10.2276V20.0107C36.8783 21.0093 36.7018 21.5579 36.288 21.8455C35.8685 22.1366 35.0889 22.261 33.6805 22.261H29.769L31.0803 18.8532C31.4583 17.8724 31.3371 17.143 31.0188 16.2839L30.3862 14.5851C30.5912 14.3047 30.7332 13.9911 30.8019 13.656C30.9446 12.9629 30.7582 12.2668 30.2769 11.6956L28.5878 9.68919C28.5733 9.67243 28.5586 9.65688 28.5441 9.6406H30.904C31.2139 9.6406 31.465 9.43019 31.465 9.17047C31.465 8.91098 31.2139 8.70058 30.904 8.70058H27.4667C26.0804 7.79288 24.5551 7.78437 23.5152 8.13326C22.6822 8.41267 22.0615 8.91293 21.7191 9.53661C21.3898 9.11483 21.0077 8.73873 20.5879 8.43308C20.6693 8.08977 20.6296 7.70638 20.467 7.33586C20.2524 6.84703 19.8524 6.4612 19.3694 6.27777L18.7768 6.0523C18.4808 5.93956 18.15 5.93033 17.8447 6.02654C17.54 6.12251 17.2985 6.31178 17.1657 6.5579L16.988 6.88396L16.8543 6.83293C16.854 6.83269 16.8535 6.83245 16.8529 6.83245C15.1902 6.19929 13.4597 6.28408 11.9799 7.07128C10.2706 7.98117 9.0744 9.7492 8.92393 11.5447C8.10811 11.5423 6.88959 11.5792 5.73427 11.8428V6.40095C5.73427 5.07705 4.44849 4 2.86815 4C1.28665 4 0 5.07681 0 6.40095V26.0801C0 27.1387 1.02805 28 2.29208 28H35.7082C36.972 28 38 27.1387 38 26.0801V10.2276C38 9.38549 37.1821 8.70058 36.177 8.70058ZM30.0125 18.5646L28.6644 22.0686C28.1909 23.2977 27.271 23.6845 26.5689 23.5227C26.1705 23.4306 25.8015 23.1442 25.7487 22.7005C25.7481 22.6918 25.7467 22.683 25.7455 22.6743C25.7354 22.5611 25.7449 22.4386 25.7806 22.3064C25.7852 22.2931 25.7994 22.2612 25.8099 22.2379C25.8623 22.1196 25.9339 21.9575 25.9493 21.7778C25.976 21.4629 25.8139 21.199 25.5072 21.0552C25.2666 20.9412 25.1288 20.7974 25.13 20.6604C25.1306 20.5758 25.1848 20.4983 25.2712 20.4585C25.3872 20.4053 25.5472 20.4266 25.724 20.5195C25.9325 20.6281 26.1902 20.6472 26.4309 20.5727C26.7788 20.4645 27.0626 20.1791 27.2084 19.7901L27.8228 18.1688C28.0187 17.6498 28.017 17.5028 27.9225 16.9836C27.919 16.9654 27.9147 16.9474 27.9086 16.9297L27.7297 16.3855C27.8425 16.3383 27.9538 16.2827 28.0631 16.2178L29.5025 15.3684L29.9476 16.5631C30.2578 17.4008 30.2737 17.887 30.0125 18.5646ZM22.3485 18.758C22.4019 18.2818 22.5451 17.9441 22.7112 17.5529C23.0243 16.8157 23.3728 15.9923 23.0939 14.1918L24.1005 15.3657C24.6919 16.057 25.6478 16.5752 26.6341 16.5915L26.8188 17.1527C26.8875 17.5303 26.8846 17.5383 26.7538 17.8848L26.1392 19.5065C26.1224 19.551 26.1035 19.5875 26.0856 19.6166C25.6249 19.4407 25.1428 19.4451 24.7317 19.6346C24.2887 19.8382 24.0118 20.2291 24.0086 20.6545C24.0051 21.1001 24.293 21.5095 24.8062 21.7965C24.7905 21.838 24.7708 21.8825 24.7583 21.9104C24.7317 21.9707 24.7064 22.0275 24.6888 22.0904C24.6876 22.0948 24.6867 22.0992 24.6856 22.1036C23.122 21.5632 22.1818 20.2578 22.3485 18.758ZM23.9318 9.00598C24.8897 8.68479 26.4456 8.8155 27.6755 10.2359L29.3605 12.2374C29.6689 12.6035 29.7881 13.0508 29.6965 13.4964C29.6052 13.942 29.3141 14.3298 28.8775 14.5875L27.4169 15.4496C26.5158 15.9834 25.4634 15.3453 25.0114 14.8176L22.9263 12.3851C22.8733 11.9125 22.7469 11.4373 22.559 10.9791C22.4335 10.1015 22.9687 9.32912 23.9318 9.00598ZM21.4695 11.2067C21.4753 11.223 21.482 11.239 21.4898 11.2546C21.7461 11.8741 21.8734 12.5316 21.8218 13.149C21.8177 13.1949 21.8131 13.2396 21.8078 13.2836C21.8061 13.2945 21.8044 13.3054 21.8035 13.3166C21.7171 13.9804 21.4591 14.4129 20.8665 14.9119C19.3873 16.1585 16.6711 16.712 15.0539 16.0963L12.7793 15.2292C13.1309 13.8594 13.8024 13.3001 14.5709 12.6609C15.597 11.8078 16.75 10.8479 17.1138 7.96465L19.0658 8.70884C19.2473 8.77784 19.4241 8.86604 19.5955 8.9693C19.6048 8.97513 19.6143 8.98071 19.6239 8.9863C20.4151 9.47223 21.0819 10.2959 21.4695 11.2067ZM18.1871 6.94688C18.1998 6.92307 18.2224 6.91165 18.2395 6.90631C18.2564 6.90096 18.2833 6.89683 18.3129 6.90825L18.9058 7.13372C19.1139 7.21293 19.3041 7.40972 19.414 7.66046C19.4389 7.71683 19.4575 7.77417 19.4726 7.83102L18.0091 7.27294L18.1871 6.94688ZM10.0294 11.8703C10.0535 10.274 11.0792 8.66438 12.5815 7.86479C13.0837 7.59753 13.7798 7.34971 14.6333 7.34971C15.0618 7.34971 15.5297 7.41215 16.033 7.56595C15.7555 10.352 14.7953 11.1501 13.7812 11.9934C12.9981 12.6443 12.1919 13.3147 11.7503 14.7865C10.2433 13.9495 10.0175 12.6336 10.0294 11.8703ZM35.7079 27.06H2.29208C1.64673 27.06 1.12169 26.6205 1.12169 26.0801V6.40095C1.12169 5.59529 1.90533 4.94002 2.86815 4.94002C3.83009 4.94002 4.61258 5.59529 4.61258 6.40095V12.4874V12.4918V18.0923C4.61258 18.6943 5.19734 19.1841 5.91605 19.1841H9.34866C9.65858 19.1841 9.90965 18.9737 9.90965 18.714C9.90965 18.4545 9.65858 18.2441 9.34866 18.2441H5.91605C5.81747 18.2441 5.73427 18.1744 5.73427 18.092V12.8236C6.83885 12.5209 8.11362 12.482 8.94307 12.485C9.14427 14.0426 10.1987 15.2795 11.9133 15.9316C11.9136 15.9318 11.9138 15.9318 11.9138 15.9318L14.5895 16.952C15.1803 17.1768 15.873 17.283 16.603 17.283C18.3828 17.283 20.3835 16.6522 21.6617 15.5747C21.8134 15.4471 21.9487 15.3208 22.0702 15.1937C22.1056 16.1738 21.8774 16.7122 21.6542 17.238C21.524 17.5446 21.3907 17.8593 21.3034 18.2441H11.4709C11.1612 18.2441 10.9102 18.4545 10.9102 18.714C10.9102 18.9737 11.1612 19.1841 11.4709 19.1841H21.2106C21.2327 20.0369 21.5443 20.8584 22.1149 21.5396C22.7365 22.2819 23.6422 22.8286 24.6928 23.1036C24.9068 23.7868 25.5498 24.2625 26.2711 24.4289C26.4717 24.4751 26.6814 24.4994 26.8944 24.4994C27.7465 24.4994 28.6563 24.1116 29.2897 23.201H33.6805C35.2872 23.201 36.2338 23.0402 36.8783 22.6505V26.0801C36.8783 26.6205 36.3533 27.06 35.7079 27.06Z" fill="black"/>
<path d="M23.4336 2.92229H24.4141L23.1944 4.21192C23.07 4.3435 23.0323 4.54207 23.0993 4.71466C23.1664 4.88725 23.3247 5 23.5004 5H25.5664C25.8058 5 26 4.79356 26 4.53874C26 4.28415 25.8058 4.07771 25.5664 4.07771H24.5516L25.7713 2.78808C25.896 2.65626 25.9334 2.45769 25.8664 2.2851C25.7993 2.11251 25.641 2 25.4655 2H23.4336C23.1942 2 23 2.20644 23 2.46103C23 2.71585 23.1942 2.92229 23.4336 2.92229Z" fill="black"/>
<path d="M28.5784 0.922802H29.8848L28.2598 2.21124C28.0936 2.3429 28.0433 2.54182 28.1327 2.7145C28.2221 2.88718 28.4332 3 28.6675 3H31.4219C31.7411 3 32 2.79345 32 2.53848C32 2.28375 31.7411 2.0772 31.4219 2.0772H30.0698L31.6948 0.788758C31.861 0.6571 31.9112 0.458419 31.8218 0.285498C31.7328 0.112816 31.5214 0 31.2873 0H28.5784C28.2589 0 28 0.206551 28 0.46152C28 0.716251 28.2589 0.922802 28.5784 0.922802Z" fill="black"/>
</svg>
