<svg width="51" height="26" viewBox="0 0 51 26" fill="none" xmlns="http://www.w3.org/2000/svg">
<path d="M50.2143 12.1113C49.5793 11.546 48.6564 11.1916 47.6346 11.1113L44.2495 7.16584L43.712 1.63364C43.6508 1.00429 43.1124 0.461804 42.2717 0.182754C41.4311 -0.0962958 40.4639 -0.0537983 39.6844 0.29664L33.4584 3.09518C33.1453 2.88296 32.7518 2.72517 32.3104 2.64158C31.5919 2.50571 30.8219 2.58675 30.1941 2.86359C29.8552 2.57241 29.3818 2.35885 28.8258 2.25864L17.9901 0.30475C17.0849 0.141329 16.1484 0.310247 15.4856 0.756271C14.8227 1.20236 14.5719 1.83232 14.8146 2.4417L15.0858 3.123L10.171 0.923983C9.39023 0.574684 8.42292 0.533393 7.58321 0.813851C6.7435 1.09411 6.20691 1.63726 6.14774 2.26681L5.79044 6.07002L5.72998 6.05916C4.82463 5.89587 3.8884 6.06472 3.2255 6.51068C2.5626 6.95677 2.31178 7.58673 2.55443 8.19611L3.709 11.0959C2.55244 11.1172 1.4914 11.4842 0.785067 12.1121C0.0484557 12.7669 -0.183833 13.5963 0.147866 14.3875C1.50993 17.6365 5.1897 20.4694 10.5304 22.3908C10.6435 23.3485 11.2721 24.2363 12.3174 24.9067C13.4166 25.6117 14.8548 26 16.3669 26H34.6357C36.1478 26 37.586 25.6117 38.6853 24.9067C39.7303 24.2364 40.3588 23.3489 40.4723 22.3917C45.8055 20.4733 49.4829 17.6446 50.8496 14.4C51.1851 13.6036 50.9535 12.7694 50.2143 12.1113ZM42.8292 7.58988L45.8354 11.0938H40.6418C40.8179 10.9985 40.9307 10.8525 40.9307 10.6887C40.9305 10.4016 40.5845 10.1688 40.1578 10.1688C39.7311 10.1688 39.3851 10.4016 39.3851 10.6887C39.3851 10.8526 39.4981 10.9985 39.6741 11.0939H38.8533L39.6815 9.07656C39.9041 8.53414 39.7351 7.97081 39.2177 7.53102C38.9706 7.32115 38.6586 7.15531 38.3104 7.0415L39.4275 5.73955C39.6168 5.51889 39.9559 5.38717 40.3346 5.38717C40.7133 5.38717 41.0524 5.51889 41.2417 5.73955L42.8272 7.58746C42.8278 7.58834 42.8284 7.58907 42.8292 7.58988ZM40.5429 1.16134C40.8577 1.01977 41.2485 1.00248 41.5881 1.11536C41.9276 1.2281 42.1451 1.44716 42.1698 1.70141L42.5036 5.13715C42.0235 4.64092 41.2233 4.34719 40.3343 4.34719C39.3969 4.34719 38.5575 4.67329 38.0888 5.21959L36.6421 6.90576C36.6047 6.91119 36.5673 6.91668 36.5303 6.92319L34.5056 7.27698L34.2018 4.20662C34.1959 4.14576 34.1841 4.0857 34.1691 4.02618L40.5429 1.16134ZM33.9993 8.43983C34.0009 8.43956 34.0025 8.43929 34.0041 8.43902L36.919 7.92966C36.9946 7.91652 37.0729 7.90868 37.1512 7.90667C37.4772 7.89943 37.7971 7.99917 38.006 8.17673C38.1283 8.28056 38.315 8.49969 38.1918 8.79965L37.25 11.0939H35.7994C35.9754 10.9985 36.0881 10.8526 36.0881 10.6888C36.0881 10.4016 35.7422 10.1688 35.3155 10.1688C34.8887 10.1688 34.5428 10.4016 34.5428 10.6888C34.5428 10.8527 34.6558 10.9986 34.8318 11.0939H28.0985C28.0884 10.8071 27.9721 10.5227 27.7497 10.2635L27.204 9.62735L33.9993 8.43983ZM30.3252 4.05533C30.3266 4.05473 30.3281 4.05399 30.3295 4.05339L31.0319 3.73687C31.2911 3.62003 31.5964 3.58659 31.8918 3.64249C32.1927 3.69947 32.4384 3.83856 32.5656 4.02423C32.6193 4.10273 32.651 4.18732 32.6598 4.2756L32.9831 7.54302L26.4022 8.693L24.6266 6.62336L30.3252 4.05533ZM26.5525 11.0939H13.2379C13.2461 10.9991 13.2848 10.8935 13.3791 10.7834L18.9881 4.2457C19.1775 4.02497 19.5165 3.89325 19.8952 3.89325C20.274 3.89325 20.613 4.02497 20.8024 4.2457L26.4114 10.7834C26.5057 10.8934 26.5444 10.9991 26.5525 11.0939ZM16.5783 1.4916C16.8461 1.31135 17.2242 1.24332 17.5901 1.30921L28.4258 3.26303C28.6126 3.29668 28.7734 3.35989 28.9002 3.44602L23.8523 5.72092L22.1406 3.72588C21.672 3.17957 20.8325 2.8534 19.8951 2.8534C18.9578 2.8534 18.1183 3.17951 17.6496 3.72588L17.3123 4.11915L17.0325 3.99393L16.3072 2.17257C16.2092 1.9263 16.3106 1.67171 16.5783 1.4916ZM7.68989 2.33244C7.7138 2.07812 7.93055 1.85873 8.26982 1.74551C8.60899 1.63223 8.99976 1.64879 9.31512 1.79009L16.538 5.02152L14.3189 7.60798L7.31277 6.34471L7.68989 2.33244ZM4.31821 7.24601C4.58596 7.06576 4.96418 6.99773 5.33005 7.06362L6.29656 7.2379C6.29825 7.23817 6.29994 7.2385 6.30164 7.23877L13.5192 8.54017L12.0408 10.2634C11.8185 10.5225 11.7022 10.807 11.6921 11.0939H5.30813L4.04708 7.92684C3.94906 7.6807 4.05046 7.42612 4.31821 7.24601ZM49.3628 14.1164C48.1073 17.0972 44.6773 19.709 39.6881 21.4934H18.2881C17.8614 21.4934 17.5155 21.7262 17.5155 22.0134C17.5155 22.3006 17.8614 22.5334 18.2881 22.5334H38.8896C38.5571 23.8998 36.7508 24.9599 34.6359 24.9599H16.367C14.2519 24.9599 12.4455 23.8997 12.1133 22.5334H15.1975C15.6242 22.5334 15.9701 22.3006 15.9701 22.0134C15.9701 21.7262 15.6242 21.4934 15.1975 21.4934H11.317C6.31957 19.7063 2.88683 17.0903 1.63533 14.1051C1.43631 13.6302 1.57547 13.1325 2.01734 12.7397C2.45044 12.3546 3.10557 12.1338 3.81499 12.1338H4.71237C4.71317 12.1338 4.71406 12.1339 4.71486 12.1339C4.71586 12.1339 4.71695 12.1338 4.71795 12.1338H12.6084C12.6114 12.1338 12.6144 12.1338 12.6174 12.1338H27.1757C27.177 12.1338 27.1784 12.1339 27.1797 12.1339C27.1806 12.1339 27.1816 12.1338 27.1825 12.1338H37.8354C37.8364 12.1338 37.8374 12.1339 37.8384 12.1339C37.8392 12.1339 37.8401 12.1338 37.8409 12.1338H47.1726C47.1731 12.1338 47.1736 12.1338 47.1742 12.1338C47.1748 12.1338 47.1752 12.1338 47.1758 12.1338H47.188C47.8962 12.1338 48.5499 12.3542 48.9815 12.7384C49.4259 13.1341 49.565 13.6363 49.3628 14.1164Z" fill="black"/>
<path d="M35.8308 6.25086C36.2575 6.25086 36.6034 6.01806 36.6034 5.7309C36.6034 5.44373 36.2575 5.21094 35.8308 5.21094C35.404 5.21094 35.0581 5.44373 35.0581 5.7309C35.0581 6.01806 35.404 6.25086 35.8308 6.25086Z" fill="black"/>
<path d="M37.6853 4.27625C38.112 4.27625 38.4579 4.04345 38.4579 3.75629C38.4579 3.46912 38.112 3.23633 37.6853 3.23633C37.2585 3.23633 36.9126 3.46912 36.9126 3.75629C36.9126 4.04345 37.2585 4.27625 37.6853 4.27625Z" fill="black"/>
<path d="M40.5695 3.30359C40.9963 3.30359 41.3422 3.0708 41.3422 2.78363C41.3422 2.49647 40.9963 2.26367 40.5695 2.26367C40.1428 2.26367 39.7969 2.49647 39.7969 2.78363C39.7969 3.0708 40.1428 3.30359 40.5695 3.30359Z" fill="black"/>
<path d="M17.5949 2.81922C18.0217 2.81922 18.3676 2.58642 18.3676 2.29926C18.3676 2.01209 18.0217 1.7793 17.5949 1.7793C17.1682 1.7793 16.8223 2.01209 16.8223 2.29926C16.8223 2.58642 17.1682 2.81922 17.5949 2.81922Z" fill="black"/>
<path d="M24.1887 4.48328C24.6154 4.48328 24.9614 4.25048 24.9614 3.96332C24.9614 3.67615 24.6154 3.44336 24.1887 3.44336C23.762 3.44336 23.416 3.67615 23.416 3.96332C23.416 4.25048 23.762 4.48328 24.1887 4.48328Z" fill="black"/>
<path d="M27.7946 8.15906C28.2214 8.15906 28.5673 7.92627 28.5673 7.6391C28.5673 7.35193 28.2214 7.11914 27.7946 7.11914C27.3679 7.11914 27.022 7.35193 27.022 7.6391C27.022 7.92627 27.3679 8.15906 27.7946 8.15906Z" fill="black"/>
<path d="M30.8855 7.46375C31.3122 7.46375 31.6581 7.23095 31.6581 6.94379C31.6581 6.65662 31.3122 6.42383 30.8855 6.42383C30.4587 6.42383 30.1128 6.65662 30.1128 6.94379C30.1128 7.23095 30.4587 7.46375 30.8855 7.46375Z" fill="black"/>
<path d="M28.6189 6.56336C29.0456 6.56336 29.3915 6.33056 29.3915 6.0434C29.3915 5.75623 29.0456 5.52344 28.6189 5.52344C28.1921 5.52344 27.8462 5.75623 27.8462 6.0434C27.8462 6.33056 28.1921 6.56336 28.6189 6.56336Z" fill="black"/>
<path d="M12.4489 6.91101C12.8757 6.91101 13.2216 6.67822 13.2216 6.39105C13.2216 6.10389 12.8757 5.87109 12.4489 5.87109C12.0222 5.87109 11.6763 6.10389 11.6763 6.39105C11.6763 6.67822 12.0222 6.91101 12.4489 6.91101Z" fill="black"/>
<path d="M9.35372 6.15515C9.78046 6.15515 10.1264 5.92236 10.1264 5.63519C10.1264 5.34803 9.78046 5.11523 9.35372 5.11523C8.92699 5.11523 8.58105 5.34803 8.58105 5.63519C8.58105 5.92236 8.92699 6.15515 9.35372 6.15515Z" fill="black"/>
<path d="M9.34152 4.28406C9.76825 4.28406 10.1142 4.05127 10.1142 3.7641C10.1142 3.47693 9.76825 3.24414 9.34152 3.24414C8.91478 3.24414 8.56885 3.47693 8.56885 3.7641C8.56885 4.05127 8.91478 4.28406 9.34152 4.28406Z" fill="black"/>
<path d="M12.4372 5.31726C12.864 5.31726 13.2099 5.08447 13.2099 4.7973C13.2099 4.51014 12.864 4.27734 12.4372 4.27734C12.0105 4.27734 11.6646 4.51014 11.6646 4.7973C11.6646 5.08447 12.0105 5.31726 12.4372 5.31726Z" fill="black"/>
<path d="M11.1042 10.5145C11.5309 10.5145 11.8769 10.2817 11.8769 9.99457C11.8769 9.7074 11.5309 9.47461 11.1042 9.47461C10.6775 9.47461 10.3315 9.7074 10.3315 9.99457C10.3315 10.2817 10.6775 10.5145 11.1042 10.5145Z" fill="black"/>
<path d="M9.04367 9.12781C9.4704 9.12781 9.81634 8.89502 9.81634 8.60785C9.81634 8.32068 9.4704 8.08789 9.04367 8.08789C8.61693 8.08789 8.271 8.32068 8.271 8.60785C8.271 8.89502 8.61693 9.12781 9.04367 9.12781Z" fill="black"/>
<path d="M42.5276 10.1005C42.9543 10.1005 43.3002 9.86767 43.3002 9.58051C43.3002 9.29334 42.9543 9.06055 42.5276 9.06055C42.1008 9.06055 41.7549 9.29334 41.7549 9.58051C41.7549 9.86767 42.1008 10.1005 42.5276 10.1005Z" fill="black"/>
<path d="M40.5695 8.4364C40.9963 8.4364 41.3422 8.20361 41.3422 7.91644C41.3422 7.62928 40.9963 7.39648 40.5695 7.39648C40.1428 7.39648 39.7969 7.62928 39.7969 7.91644C39.7969 8.20361 40.1428 8.4364 40.5695 8.4364Z" fill="black"/>
<path d="M30.1643 10.7919C30.591 10.7919 30.9369 10.5591 30.9369 10.2719C30.9369 9.98475 30.591 9.75195 30.1643 9.75195C29.7375 9.75195 29.3916 9.98475 29.3916 10.2719C29.3916 10.5591 29.7375 10.7919 30.1643 10.7919Z" fill="black"/>
<path d="M33.2551 10.0302C33.6818 10.0302 34.0278 9.79736 34.0278 9.51019C34.0278 9.22303 33.6818 8.99023 33.2551 8.99023C32.8284 8.99023 32.4824 9.22303 32.4824 9.51019C32.4824 9.79736 32.8284 10.0302 33.2551 10.0302Z" fill="black"/>
<path d="M17.2859 9.40515C17.7126 9.40515 18.0585 9.17236 18.0585 8.88519C18.0585 8.59803 17.7126 8.36523 17.2859 8.36523C16.8591 8.36523 16.5132 8.59803 16.5132 8.88519C16.5132 9.17236 16.8591 9.40515 17.2859 9.40515Z" fill="black"/>
<path d="M19.7585 6.77234C20.1852 6.77234 20.5312 6.53955 20.5312 6.25238C20.5312 5.96522 20.1852 5.73242 19.7585 5.73242C19.3318 5.73242 18.9858 5.96522 18.9858 6.25238C18.9858 6.53955 19.3318 6.77234 19.7585 6.77234Z" fill="black"/>
<path d="M20.3767 10.7919C20.8034 10.7919 21.1493 10.5591 21.1493 10.2719C21.1493 9.98475 20.8034 9.75195 20.3767 9.75195C19.9499 9.75195 19.604 9.98475 19.604 10.2719C19.604 10.5591 19.9499 10.7919 20.3767 10.7919Z" fill="black"/>
<path d="M21.4069 8.71375C21.8337 8.71375 22.1796 8.48095 22.1796 8.19379C22.1796 7.90662 21.8337 7.67383 21.4069 7.67383C20.9802 7.67383 20.6343 7.90662 20.6343 8.19379C20.6343 8.48095 20.9802 8.71375 21.4069 8.71375Z" fill="black"/>
<path d="M23.4675 10.7919C23.8942 10.7919 24.2402 10.5591 24.2402 10.2719C24.2402 9.98475 23.8942 9.75195 23.4675 9.75195C23.0408 9.75195 22.6948 9.98475 22.6948 10.2719C22.6948 10.5591 23.0408 10.7919 23.4675 10.7919Z" fill="black"/>
</svg>
