<svg width="20" height="20" viewBox="0 0 20 20" fill="none" xmlns="http://www.w3.org/2000/svg">
<path d="M18.9922 13.5796L14.1336 19.8996C14.085 19.9629 14.0092 20 13.929 20C13.8494 20 13.7736 19.9627 13.7247 19.8996L8.86632 13.5796C8.83034 13.5332 8.8128 13.4778 8.8128 13.4226C8.8128 13.3687 8.82983 13.3136 8.86463 13.2672C8.93477 13.1748 9.05762 13.1405 9.16565 13.1825L12.3826 14.4535V0.982961C12.3826 0.840406 12.4985 0.725501 12.6406 0.725501H15.2188C15.3609 0.725501 15.4765 0.840406 15.4765 0.982961V14.4535L18.6935 13.1825C18.8013 13.1405 18.9241 13.1748 18.9938 13.2672C19.0638 13.3601 19.0632 13.4873 18.9922 13.5796ZM11.1355 6.73302C11.1703 6.68657 11.1872 6.63164 11.1872 6.5776C11.1872 6.52258 11.1694 6.46686 11.1337 6.4204L6.27506 0.100495C6.22622 0.037054 6.15029 0 6.0708 0C5.99061 0 5.9151 0.0373347 5.86602 0.100495L1.00768 6.42036C0.936617 6.51248 0.936337 6.63978 1.00628 6.73302C1.07585 6.8251 1.19876 6.85967 1.3066 6.81738L4.52384 5.54655V19.0169C4.52384 19.1596 4.63902 19.2747 4.78144 19.2747H7.35974C7.50201 19.2747 7.61776 19.1596 7.61776 19.0169V5.5465L10.8349 6.81733C10.9424 6.85967 11.0652 6.82505 11.1355 6.73302Z" fill="#297DB6"/>
</svg>
