<svg width="16" height="16" viewBox="0 0 16 16" fill="none" xmlns="http://www.w3.org/2000/svg">
<g clip-path="url(#clip0)">
<path d="M14.3333 14.6673H1.66667C0.733333 14.6673 0 13.934 0 13.0007V5.00065C0 4.06732 0.733333 3.33398 1.66667 3.33398H14.3333C15.2667 3.33398 16 4.06732 16 5.00065V13.0007C16 13.934 15.2667 14.6673 14.3333 14.6673ZM1.66667 4.00065C1.13333 4.00065 0.666667 4.46732 0.666667 5.00065V13.0007C0.666667 13.534 1.13333 14.0007 1.66667 14.0007H14.3333C14.8667 14.0007 15.3333 13.534 15.3333 13.0007V5.00065C15.3333 4.46732 14.8667 4.00065 14.3333 4.00065H1.66667Z" fill="#979797"/>
<path d="M10.333 4.00065C10.133 4.00065 9.99967 3.86732 9.99967 3.66732V2.33398C9.99967 2.13398 9.86633 2.00065 9.66633 2.00065H6.33301C6.13301 2.00065 5.99967 2.13398 5.99967 2.33398V3.66732C5.99967 3.86732 5.86634 4.00065 5.66634 4.00065C5.46634 4.00065 5.33301 3.86732 5.33301 3.66732V2.33398C5.33301 1.80065 5.79967 1.33398 6.33301 1.33398H9.66633C10.1997 1.33398 10.6663 1.80065 10.6663 2.33398V3.66732C10.6663 3.86732 10.533 4.00065 10.333 4.00065Z" fill="#979797"/>
<path d="M8.00015 9.33489C7.93349 9.33489 7.93349 9.33489 7.86682 9.33489L0.200154 6.66823C0.066821 6.60156 -0.0665124 6.40156 0.000154298 6.20156C0.066821 6.06823 0.266821 5.9349 0.466821 6.00156L8.00015 8.66823L15.5335 6.00156C15.7335 5.9349 15.8668 6.00156 15.9335 6.20156C16.0002 6.40156 15.9335 6.53489 15.7335 6.60156L8.06682 9.26822C8.06682 9.33489 8.06682 9.33489 8.00015 9.33489Z" fill="#979797"/>
</g>
<defs>
<clipPath id="clip0">
<rect width="16" height="16" fill="white"/>
</clipPath>
</defs>
</svg>
