<svg width="44" height="25" viewBox="0 0 44 25" fill="none" xmlns="http://www.w3.org/2000/svg">
<path d="M31.9969 19C31.4452 19 31 19.2238 31 19.5C31 19.7762 31.4495 20 32.0012 20C32.5525 20 33 19.7762 33 19.5C33 19.2238 32.5525 19 32.0012 19H31.9969Z" fill="black"/>
<path d="M42.7468 20.4615L39.3788 21.4478C38.7108 21.6433 38.1206 21.905 37.6241 22.2253C36.8118 22.7498 35.6405 23.0504 34.4109 23.0504H32.3279C30.8028 23.0504 29.3443 22.7275 28.2214 22.1412C26.7802 21.3887 24.9091 20.9742 22.952 20.974L19.4544 20.9736C18.9515 20.9736 18.5423 20.7411 18.5423 20.4552C18.5423 20.1691 18.9515 19.9364 19.4551 19.9364C21.1846 19.9362 24.1407 19.936 26.4687 19.936C26.9434 19.936 27.3281 19.7174 27.3281 19.4477C27.3281 19.1782 26.9434 18.9594 26.4687 18.9594C24.1407 18.9596 21.1842 18.9596 19.4547 18.9598C18.0039 18.96 16.8236 19.6308 16.8236 20.4552C16.8236 20.5861 16.8534 20.7129 16.9092 20.8338L13.1259 21.4352C12.9446 21.464 12.7852 21.5258 12.6717 21.6111L10.5394 23.2154C10.2473 23.4354 9.71793 23.5086 9.28053 23.3898C9.00559 23.315 8.80485 23.1759 8.72999 23.0083C8.65479 22.8404 8.71421 22.6638 8.8928 22.5236L11.105 20.7881C11.4478 20.5191 11.8999 20.2931 12.4129 20.1344L19.2489 18.0179C19.879 17.8228 20.5914 17.7198 21.3091 17.7198H36.1833C36.3216 17.7198 36.4579 17.7007 36.5805 17.6645L43.5377 15.603C43.9583 15.4782 44.1218 15.1833 43.9023 14.9441C43.6827 14.7049 43.1638 14.6122 42.7428 14.737L35.9725 16.7432H34.4559V16.4657C34.4559 15.4382 32.9842 14.6019 31.1758 14.6019H27.3251C27.1834 14.6019 27.0226 14.5833 26.8564 14.5489L27.1861 14.3618C27.4644 14.2035 27.5177 13.9582 27.316 13.7661L26.0746 12.5852L26.0934 12.5746C26.2978 12.4584 26.3858 12.2915 26.327 12.1305L25.4405 9.69342C25.4143 9.62094 25.3586 9.55075 25.273 9.48914L12.8127 0.549682C12.3612 0.225804 11.6858 0.0262892 10.9597 0.0024466C10.2332 -0.0215867 9.52256 0.132341 9.00828 0.424556L0.747196 5.1185C0.232913 5.41071 -0.0379915 5.8149 0.00430588 6.22747C0.0462675 6.63985 0.397067 7.02362 0.967411 7.28017L16.7007 14.3599C16.8091 14.4087 16.9323 14.44 17.0602 14.4551V14.4553L21.349 14.959C21.4068 14.9659 21.4652 14.9691 21.5229 14.9691C21.7485 14.9691 21.9677 14.9186 22.1305 14.8261L22.1493 14.8156L24.147 15.4937V15.8574C24.147 16.1779 24.2904 16.4794 24.5425 16.743H21.3091C20.305 16.743 19.3084 16.8874 18.4268 17.1602L11.5908 19.2766C10.8543 19.5046 10.205 19.8292 9.71323 20.2151L7.50101 21.9508C7.02231 22.3262 6.8632 22.7994 7.06428 23.2486C7.26536 23.698 7.8028 24.0705 8.53864 24.2706C8.91563 24.373 9.31779 24.4221 9.71626 24.4221C10.2567 24.4221 10.7895 24.3313 11.2427 24.1605C11.5139 24.4581 11.949 24.7005 12.4931 24.8484C12.8701 24.9508 13.2723 25 13.6707 25C14.5113 25 15.3348 24.7812 15.8658 24.3816L17.792 22.932L25.1501 22.2236C25.1864 22.2199 25.2213 22.2148 25.2558 22.2091C25.9131 22.3624 26.5241 22.581 27.0585 22.8601C28.4997 23.6124 30.3711 24.0268 32.3282 24.0268H34.4109C36.1343 24.0268 37.7755 23.6053 38.9142 22.8704C39.2684 22.6419 39.6897 22.4551 40.1663 22.3157L43.534 21.3294C43.956 21.2058 44.1218 20.9113 43.9043 20.6717C43.6868 20.4321 43.1685 20.3379 42.7468 20.4615ZM24.3857 12.1637L21.4075 13.8562C21.4071 13.8562 21.4071 13.8563 21.4068 13.8563L21.243 13.9494L18.9683 13.6824L24.0802 10.778L24.5502 12.0702L24.3864 12.1635C24.3861 12.1635 24.3861 12.1635 24.3857 12.1637ZM1.72004 6.17101C1.70594 6.03444 1.79221 5.90588 1.96274 5.80917L10.2238 1.11523C10.3819 1.0252 10.5887 0.976561 10.8106 0.976561C10.8271 0.976561 10.8439 0.976751 10.8606 0.977514C11.101 0.985335 11.3158 1.04885 11.4652 1.15605L23.4501 9.75465L17.1676 13.3244L4.56269 7.65249L8.53562 5.39507C8.87098 5.20433 8.87098 4.89514 8.53562 4.70459C8.19993 4.51385 7.65577 4.51385 7.32008 4.70459L3.20615 7.04193L2.03424 6.51472C1.84558 6.42965 1.7338 6.30777 1.72004 6.17101ZM24.8215 13.2973L25.4972 13.9403L24.5338 14.4875L23.4025 14.1035L24.8215 13.2973ZM31.2779 16.7424H27.4231C26.5644 16.7424 25.8658 16.3455 25.8658 15.8576V15.368C26.3468 15.5051 26.8507 15.5787 27.3251 15.5787H31.1758C32.0369 15.5787 32.7371 15.9766 32.7371 16.4659V16.7432H31.3044C31.2956 16.743 31.2869 16.7424 31.2779 16.7424ZM17.1683 22.0017C16.9521 22.0225 16.7581 22.0895 16.6258 22.1891L14.4938 23.7934C14.2015 24.0133 13.6721 24.0864 13.2347 23.9675C12.9601 23.8929 12.7593 23.7539 12.6841 23.586C12.6093 23.4184 12.6687 23.2417 12.8473 23.1016C12.8536 23.0966 12.8587 23.0914 12.8644 23.0865L13.8681 22.3312L17.9532 21.6819C18.1459 21.7584 18.3573 21.8205 18.5826 21.8656L17.1683 22.0017Z" fill="black"/>
<path d="M12 4C12.2641 4 12.5211 3.94704 12.707 3.85402C12.8941 3.76099 13 3.63182 13 3.4999C13 3.36818 12.8941 3.23959 12.707 3.14618C12.5211 3.05296 12.2641 3 12 3C11.7371 3 11.4789 3.05296 11.293 3.14618C11.107 3.23959 11 3.36818 11 3.4999C11 3.63182 11.107 3.76041 11.293 3.85402C11.4789 3.94704 11.7371 4 12 4Z" fill="black"/>
</svg>
