<svg width="34" height="26" viewBox="0 0 34 26" fill="none" xmlns="http://www.w3.org/2000/svg">
<path d="M18.5417 26H15.5769C15.2555 26 14.9951 25.8295 14.9951 25.6191V20.6248C14.9951 20.4145 15.2555 20.2439 15.5769 20.2439C15.8983 20.2439 16.1587 20.4145 16.1587 20.6248V25.2383H17.9599V0.761719H16.1587V18.9653C16.1587 19.1756 15.8983 19.3461 15.5769 19.3461C15.2555 19.3461 14.9951 19.1756 14.9951 18.9653V0.380859C14.9951 0.170523 15.2555 0 15.5769 0H18.5417C18.863 0 19.1235 0.170523 19.1235 0.380859V25.6191C19.1235 25.8295 18.8631 26 18.5417 26Z" fill="black"/>
<path d="M6.51253 6.58586C8.46853 6.58586 10.0598 5.54413 10.0598 4.26363C10.0598 2.98313 8.46846 1.94141 6.51253 1.94141C4.5566 1.94141 2.96533 2.98313 2.96533 4.26363C2.96525 5.54413 4.55652 6.58586 6.51253 6.58586ZM6.51253 2.70312C7.82695 2.70312 8.89625 3.4032 8.89625 4.26363C8.89625 5.12407 7.82695 5.82414 6.51253 5.82414C5.19818 5.82414 4.12888 5.12407 4.12888 4.26363C4.1288 3.4032 5.19818 2.70312 6.51253 2.70312Z" fill="black"/>
<path d="M9.34098 7.76562H7.78027C7.4589 7.76562 7.19849 7.93615 7.19849 8.14648C7.19849 8.35682 7.4589 8.52734 7.78027 8.52734H9.34098C10.7311 8.52734 11.862 9.26773 11.862 10.1777V15.5316H10.0599V10.0881C10.0599 9.87777 9.79949 9.70725 9.47812 9.70725C9.15675 9.70725 8.89635 9.87777 8.89635 10.0881V15.5313H4.12889V10.0881C4.12889 9.87777 3.86849 9.70725 3.54712 9.70725C3.22575 9.70725 2.96534 9.87777 2.96534 10.0881V15.5316H1.16355V10.1777C1.16355 9.26773 2.29444 8.52734 3.68457 8.52734H5.24451C5.56588 8.52734 5.82628 8.35682 5.82628 8.14648C5.82628 7.93615 5.56588 7.76562 5.24451 7.76562H3.68457C1.65294 7.76562 0 8.84772 0 10.1777V15.9125C0 16.1228 0.260402 16.2933 0.581775 16.2933H2.96534V22.707C2.96534 23.4523 3.89145 24.0585 5.02987 24.0585C5.61133 24.0585 6.13695 23.9001 6.51254 23.646C6.88814 23.9001 7.41383 24.0585 7.99529 24.0585C9.13371 24.0585 10.0598 23.4523 10.0598 22.707V16.2933H12.4437C12.7651 16.2933 13.0255 16.1228 13.0255 15.9125V10.1777C13.0255 8.84772 11.3726 7.76562 9.34098 7.76562ZM5.02987 23.2969C4.53311 23.2969 4.12889 23.0323 4.12889 22.707V16.2934H5.93077V22.707C5.93077 23.0322 5.52663 23.2969 5.02987 23.2969ZM8.89627 22.707C8.89627 23.0322 8.49205 23.2968 7.99529 23.2968C7.49853 23.2968 7.09432 23.0322 7.09432 22.707V16.2933H8.89627V22.707Z" fill="black"/>
<path d="M27.4384 6.58586C29.3943 6.58586 30.9856 5.54413 30.9856 4.26363C30.9856 2.98313 29.3942 1.94141 27.4384 1.94141C25.4824 1.94141 23.8911 2.98313 23.8911 4.26363C23.8911 5.54413 25.4825 6.58586 27.4384 6.58586ZM27.4384 2.70312C28.7527 2.70312 29.822 3.4032 29.822 4.26363C29.822 5.12407 28.7527 5.82414 27.4384 5.82414C26.124 5.82414 25.0547 5.12407 25.0547 4.26363C25.0547 3.4032 26.124 2.70312 27.4384 2.70312Z" fill="black"/>
<path d="M31.8086 16.2934H33.3695C33.7587 16.2643 33.9511 16.1216 33.9468 15.8652C33.9468 15.8652 32.757 9.68358 32.7226 9.59497C32.3143 8.5179 30.8441 7.76568 29.1474 7.76568H28.7061C28.3847 7.76568 28.1243 7.9362 28.1243 8.14653C28.1243 8.35687 28.3847 8.52739 28.7061 8.52739H29.1474C30.3083 8.52739 31.3141 9.04186 31.5942 9.78073C31.6176 9.84095 32.7105 15.5317 32.7105 15.5317H30.8888L29.9708 10.0467C29.9358 9.8376 29.6484 9.68663 29.3291 9.70953C29.0097 9.73243 28.7792 9.92053 28.8141 10.1296L29.7889 15.9537C29.8106 16.0836 29.93 16.1907 30.0937 16.248L31.9649 17.473H30.4111C30.4086 17.4729 22.8288 17.473 22.8288 17.473L24.6515 16.1697C24.7307 16.1132 24.7835 16.0395 24.7991 15.9637L26.0128 10.1396C26.0562 9.93119 25.8334 9.73919 25.5149 9.71075C25.197 9.68252 24.9033 9.82821 24.8599 10.0366L23.7149 15.5317H22.1665C22.1665 15.5317 23.2587 9.84095 23.2831 9.77844C23.5623 9.04181 24.568 8.52734 25.7289 8.52734H26.171C26.4924 8.52734 26.7528 8.35682 26.7528 8.14648C26.7528 7.93615 26.4924 7.76562 26.171 7.76562H25.7289C24.0322 7.76562 22.5621 8.51785 22.1547 9.59268C22.1193 9.68358 20.9302 15.8653 20.9302 15.8653C20.9261 16.1216 21.1185 16.2643 21.5075 16.2934H22.9011L21.0784 17.5967C20.7976 17.9315 20.9406 18.1442 21.5075 18.2347H23.8909V22.707C23.8909 23.4523 24.817 24.0586 25.9555 24.0586C26.5369 24.0586 27.0626 23.9001 27.4382 23.6461C27.8138 23.9002 28.3395 24.0586 28.9209 24.0586C30.0593 24.0586 30.9854 23.4523 30.9854 22.707V18.2347H33.3694C33.9902 18.2347 34.2018 17.8536 33.7809 17.5846L31.8086 16.2934ZM25.9555 23.2969C25.4587 23.2969 25.0545 23.0323 25.0545 22.7071V18.2348H26.8564V22.7071C26.8564 23.0323 26.4522 23.2969 25.9555 23.2969ZM29.8219 22.707C29.8219 23.0323 29.4177 23.2969 28.921 23.2969C28.4242 23.2969 28.0201 23.0323 28.0201 22.707V18.2347H29.8219V22.707Z" fill="black"/>
</svg>
