<svg width="24" height="24" viewBox="0 0 24 24" fill="none" xmlns="http://www.w3.org/2000/svg">
<g opacity="0.65">
<path fill-rule="evenodd" clip-rule="evenodd" d="M22.2748 4.76807C22.1155 4.60876 21.8839 4.51996 21.6591 4.51996H17.3378V3.17368C17.3378 2.26318 16.5981 1.52344 15.6876 1.52344H8.31116C7.40067 1.52344 6.66092 2.26318 6.66092 3.17368V4.51996H2.31766C1.85669 4.51996 1.47949 4.89441 1.47949 5.35812C1.47949 5.82184 1.85394 6.19629 2.31766 6.19629H3.0574V20.7829C3.0574 21.6934 3.79715 22.4332 4.70764 22.4332H19.5264C20.4369 22.4332 21.1766 21.6934 21.1766 20.7829V6.19629H21.6586C22.1196 6.19629 22.5201 5.82184 22.5201 5.35812C22.5206 5.13565 22.4341 4.92737 22.2748 4.76807ZM3.97311 22.1102C3.93787 22.078 3.90308 22.0458 3.87012 22.0102C3.90262 22.0458 3.93787 22.078 3.97311 22.1102ZM4.09687 22.1391C4.13001 22.1752 4.16374 22.2113 4.19687 22.2391C4.17615 22.2217 4.15659 22.2011 4.13587 22.1792L4.13585 22.1792L4.13582 22.1792L4.13576 22.1791C4.12337 22.166 4.11058 22.1526 4.09687 22.1391ZM15.6804 3.18047H8.30859V4.53591H15.6804V3.18047ZM19.5234 20.7789H4.70742V6.19453H6.84243H19.5234V20.7789ZM11.1457 9.84743C11.1457 9.38143 11.5224 9.00469 11.9884 9.00469C12.4544 9.00469 12.8312 9.38188 12.8312 9.84743V17.6665C12.8312 18.1325 12.4544 18.5092 11.9884 18.5092C11.5224 18.5092 11.1457 18.1325 11.1457 17.6665V9.84743ZM7.42399 9.00469C6.95799 9.00469 6.58125 9.38143 6.58125 9.84743V17.6665C6.58125 18.1325 6.95799 18.5092 7.42399 18.5092C7.89 18.5092 8.26674 18.1325 8.26674 17.6665V9.84743C8.26674 9.38188 7.88954 9.00469 7.42399 9.00469ZM15.6633 9.84743C15.6633 9.38143 16.04 9.00469 16.506 9.00469C16.972 9.00469 17.3488 9.38188 17.3488 9.84743V17.6665C17.3488 18.1325 16.972 18.5092 16.506 18.5092C16.04 18.5092 15.6633 18.1325 15.6633 17.6665V9.84743Z" fill="#52606D"/>
</g>
</svg>
