<svg width="14" height="14" viewBox="0 0 14 14" fill="none" xmlns="http://www.w3.org/2000/svg">
<path fill-rule="evenodd" clip-rule="evenodd" d="M12.9939 2.78137C12.9009 2.68845 12.7658 2.63664 12.6347 2.63664H10.114V1.85131C10.114 1.32019 9.68244 0.888672 9.15132 0.888672H4.84842C4.3173 0.888672 3.88578 1.32019 3.88578 1.85131V2.63664H1.35221C1.08331 2.63664 0.863281 2.85507 0.863281 3.12557C0.863281 3.39607 1.08171 3.6145 1.35221 3.6145H1.78373V12.1234C1.78373 12.6545 2.21525 13.086 2.74637 13.086H11.3906C11.9217 13.086 12.3533 12.6545 12.3533 12.1234V3.6145H12.6344C12.9033 3.6145 13.137 3.39607 13.137 3.12557C13.1373 2.9958 13.0868 2.8743 12.9939 2.78137ZM2.31765 12.8979C2.29709 12.8792 2.27679 12.8604 2.25757 12.8396C2.27653 12.8604 2.29709 12.8792 2.31765 12.8979ZM2.38959 12.9131C2.40892 12.9342 2.42859 12.9552 2.44792 12.9714C2.43584 12.9613 2.42443 12.9493 2.41235 12.9365L2.41234 12.9365C2.40509 12.9289 2.39761 12.921 2.38959 12.9131ZM9.14691 1.85425H4.84668V2.64492H9.14691V1.85425ZM11.389 12.122H2.74634V3.6145H3.99176H11.389V12.122ZM6.50183 5.74502C6.50183 5.47318 6.7216 5.25342 6.99343 5.25342C7.26527 5.25342 7.48503 5.47345 7.48503 5.74502V10.3061C7.48503 10.578 7.26527 10.7977 6.99343 10.7977C6.7216 10.7977 6.50183 10.578 6.50183 10.3061V5.74502ZM4.33041 5.25342C4.05857 5.25342 3.83881 5.47318 3.83881 5.74502V10.3061C3.83881 10.578 4.05857 10.7977 4.33041 10.7977C4.60224 10.7977 4.82201 10.578 4.82201 10.3061V5.74502C4.82201 5.47345 4.60197 5.25342 4.33041 5.25342ZM9.13708 5.74502C9.13708 5.47318 9.35685 5.25342 9.62868 5.25342C9.90052 5.25342 10.1203 5.47345 10.1203 5.74502V10.3061C10.1203 10.578 9.90052 10.7977 9.62868 10.7977C9.35685 10.7977 9.13708 10.578 9.13708 10.3061V5.74502Z" fill="#297DB6"/>
</svg>
