<svg width="24" height="24" viewBox="0 0 24 24" fill="none" xmlns="http://www.w3.org/2000/svg">
<g clip-path="url(#clip0)">
<path d="M12.0009 23.9998C18.6282 23.9998 24.0008 18.6273 24.0008 11.9999C24.0008 5.37254 18.6282 0 12.0009 0C5.37351 0 0.000976562 5.37254 0.000976562 11.9999C0.000976562 18.6273 5.37351 23.9998 12.0009 23.9998Z" fill="#55ACEE"/>
<path d="M19.3503 8.62436C18.8361 8.85239 18.2829 9.00662 17.7028 9.07549C18.2951 8.72062 18.7497 8.15911 18.9642 7.48893C18.41 7.81771 17.7958 8.05622 17.1428 8.18478C16.6196 7.62754 15.8741 7.2793 15.0486 7.2793C13.4648 7.2793 12.1803 8.56382 12.1803 10.1476C12.1803 10.3724 12.2057 10.5913 12.2549 10.8013C9.87114 10.6817 7.7575 9.53989 6.3427 7.80402C6.09585 8.22756 5.95424 8.72062 5.95424 9.24619C5.95424 10.2411 6.46099 11.1194 7.23021 11.6336C6.76025 11.6189 6.31768 11.4899 5.93114 11.2745C5.93093 11.2867 5.93093 11.2989 5.93093 11.3108C5.93093 12.7006 6.92004 13.8598 8.23195 14.1231C7.99152 14.189 7.73761 14.2239 7.47642 14.2239C7.29118 14.2239 7.11171 14.2061 6.93673 14.1727C7.30166 15.312 8.36072 16.1414 9.61616 16.1647C8.63432 16.9341 7.3977 17.3925 6.0535 17.3925C5.82247 17.3925 5.59359 17.379 5.36963 17.3523C6.63833 18.1664 8.14639 18.6411 9.76611 18.6411C15.042 18.6411 17.9272 14.2705 17.9272 10.4798C17.9272 10.3555 17.9244 10.2317 17.9188 10.1089C18.4797 9.7046 18.9659 9.19956 19.3503 8.62436Z" fill="#F1F2F2"/>
</g>
<defs>
<clipPath id="clip0">
<rect width="24" height="24" fill="white"/>
</clipPath>
</defs>
</svg>
