<svg width="26" height="24" viewBox="0 0 26 24" fill="none" xmlns="http://www.w3.org/2000/svg">
<g opacity="0.65">
<path fill-rule="evenodd" clip-rule="evenodd" d="M13 0C5.82074 0 0 5.37299 0 12C0 18.627 5.82074 24 13 24C20.1793 24 26 18.627 26 12C26 5.37299 20.1793 0 13 0ZM20.8967 19.2892C19.8714 20.2356 18.6757 20.98 17.3452 21.499C15.9714 22.0368 14.5086 22.3092 13 22.3092C11.4914 22.3092 10.0286 22.0368 8.65224 21.499C7.32171 20.98 6.12856 20.2356 5.10078 19.2892C4.07553 18.3428 3.26907 17.2391 2.70684 16.011C2.1268 14.7429 1.8317 13.3926 1.8317 12C1.8317 10.6074 2.1268 9.25714 2.70939 7.98669C3.27162 6.75851 4.07807 5.65714 5.10332 4.70841C6.12856 3.76203 7.32426 3.01761 8.65479 2.49862C10.0286 1.9632 11.4914 1.6908 13 1.6908C14.5086 1.6908 15.9714 1.9632 17.3477 2.50097C18.6783 3.01995 19.8714 3.76438 20.8992 4.71076C21.9245 5.65714 22.7309 6.76085 23.2931 7.98903C23.8732 9.25714 24.1683 10.6074 24.1683 12C24.1683 13.3926 23.8732 14.7429 23.2906 16.0133C22.7284 17.2391 21.9245 18.3428 20.8967 19.2892ZM10.6773 5.86619L18.0779 11.6783C18.2941 11.8544 18.2941 12.1433 18.0779 12.3194L10.6773 18.1316C10.5704 18.2208 10.4407 18.2584 10.3135 18.2584C10.0387 18.2584 9.77923 18.0799 9.77923 17.8122V6.18556C9.77923 5.9155 10.0387 5.73938 10.3135 5.73938C10.4407 5.73938 10.5704 5.7793 10.6773 5.86619Z" fill="#52606D"/>
</g>
</svg>
