<svg width="24" height="24" viewBox="0 0 24 24" fill="none" xmlns="http://www.w3.org/2000/svg">
<path d="M12.003 0H11.997C5.3805 0 0 5.382 0 12C0 14.625 0.846 17.058 2.2845 19.0335L0.789 23.4915L5.4015 22.017C7.299 23.274 9.5625 24 12.003 24C18.6195 24 24 18.6165 24 12C24 5.3835 18.6195 0 12.003 0Z" fill="#4CAF50"/>
<path d="M18.9858 16.9453C18.6963 17.7628 17.5473 18.4408 16.6308 18.6388C16.0038 18.7723 15.1848 18.8788 12.4278 17.7358C8.90132 16.2748 6.63032 12.6913 6.45332 12.4588C6.28382 12.2263 5.02832 10.5613 5.02832 8.83928C5.02832 7.11728 5.90282 6.27878 6.25532 5.91878C6.54482 5.62328 7.02332 5.48828 7.48232 5.48828C7.63082 5.48828 7.76432 5.49578 7.88432 5.50178C8.23682 5.51678 8.41382 5.53778 8.64632 6.09428C8.93582 6.79178 9.64082 8.51378 9.72482 8.69078C9.81032 8.86778 9.89582 9.10778 9.77582 9.34028C9.66332 9.58028 9.56432 9.68678 9.38732 9.89078C9.21032 10.0948 9.04232 10.2508 8.86532 10.4698C8.70332 10.6603 8.52032 10.8643 8.72432 11.2168C8.92832 11.5618 9.63332 12.7123 10.6713 13.6363C12.0108 14.8288 13.0968 15.2098 13.4853 15.3718C13.7748 15.4918 14.1198 15.4633 14.3313 15.2383C14.5998 14.9488 14.9313 14.4688 15.2688 13.9963C15.5088 13.6573 15.8118 13.6153 16.1298 13.7353C16.4538 13.8478 18.1683 14.6953 18.5208 14.8708C18.8733 15.0478 19.1058 15.1318 19.1913 15.2803C19.2753 15.4288 19.2753 16.1263 18.9858 16.9453Z" fill="#FAFAFA"/>
</svg>
